<?xml version="1.0" encoding="utf-8"?>
<!-- Generator: Adobe Illustrator 22.0.1, SVG Export Plug-In . SVG Version: 6.00 Build 0)  -->
<svg version="1.1" xmlns="http://www.w3.org/2000/svg" xmlns:xlink="http://www.w3.org/1999/xlink" x="0px" y="0px"
	 viewBox="0 0 1300 1300" style="enable-background:new 0 0 1300 1300;" xml:space="preserve">
<style type="text/css">
	.st0{display:none;fill:#DEAB2B;}
	.st1{fill:#D1CF78;}
	.st2{fill:#020203;}
	.st3{fill:#E59EC6;}
	.st4{fill:#AC7198;}
	.st5{fill:#F2C9E0;}
	.st6{fill:#FFD623;}
	.st7{fill:#FFD523;}
	.st8{fill:#D63C28;}
	.st9{fill:#4E555F;}
	.st10{fill:#FFFFFF;}
	.st11{fill:#DC3933;}
	.st12{fill:#EA5D34;}
	.st13{fill:#EB5939;}
	.st14{fill:#D8D2D2;}
	.st15{fill:#FFFFFF;stroke:#000000;stroke-width:1.0482;stroke-miterlimit:10;}
	.st16{fill:#558188;}
	.st17{fill:#4C5F66;}
	.st18{fill:#E0AA2C;}
	.st19{fill:#E0AB27;}
	.st20{fill:#EB5B34;}
	.st21{fill:#E03631;}
	.st22{fill:#3B4247;}
	.st23{fill:#51545B;}
	.st24{fill:#7C838B;}
	.st25{fill:#828385;}
	.st26{fill:#84848A;}
	.st27{fill:#6E6E74;}
	.st28{fill:#848489;}
	.st29{fill:#3E4348;}
	.st30{fill:#4D545A;}
	.st31{fill:none;stroke:#020203;stroke-width:2.0964;}
	.st32{fill:none;stroke:#020203;stroke-width:2.0964;stroke-linecap:round;stroke-linejoin:bevel;}
	.st33{fill:none;stroke:#020203;stroke-width:2.0964;stroke-linejoin:round;}
	.st34{fill:none;stroke:#020203;stroke-width:2.0964;stroke-linecap:round;}
	.st35{fill:none;stroke:#000000;stroke-width:2.0964;stroke-miterlimit:10;}
	.st36{fill:#020304;}
	.st37{fill:none;stroke:#020304;stroke-width:2.0964;stroke-miterlimit:10;}
	.st38{fill:none;stroke:#020203;stroke-width:2.0722;}
</style>
<g id="Capa_1">
	<path id="path3942" inkscape:connector-curvature="0" class="st0" d="M233.9,561l0.8,16.6c0,0-11.8,5-14.6,5.9
		c-2.8,1-5.6,2.1-6.1,1.5c-0.4-0.6-4-8-6.2-16.5s-1.7-9.2-2.9-10c-1.2-0.8-1-1.4-4.3-1.5c-3.3-0.1-13.2,0.8-21.9,0.3
		c-8.7-0.6-13.5-0.7-13.5-0.7s-2.2-0.1-1.4-5.4s6.2-35.8,6.2-35.8s1.1-2.2-1.2-3.9c-2.3-1.7-27.2-17.3-31.1-19.4s-7.6-4.4-5.2-7.8
		c2.3-3.4,23.7-29.6,24.5-30.7c0.8-1.1,1.7-2.8,0.1-4.8c-1.5-2.1-18-36-18-36s-2.1-2.8,1.8-3.9c3.9-1.1,40.3-12.8,40.3-12.8
		s1.8-0.4,1.9-3s2.8-22.3,4.4-27.9c1.7-5.6,5.1-14.6,5.1-14.6l3.4,0.8l-5.4,56.1c0,0-14.4,4.7-21.3,8.7c-6.9,4-8.5,8.5-2.6,19.1
		c5.9,10.6,14.3,22.6,10.5,27.8s-15.4,15.7-11.1,21.5c4.3,5.8,12.7,11.6,16.8,16s6.2,5.8,5.6,13.5c-0.6,7.7-2.9,12-1.1,13.8
		c1.8,1.8,13.9,4.4,13.9,4.4s6.5-5.8,12.9-8c6.5-2.2,9.6-2.3,11.8-1.2c2.2,1.1,6.1,5.2,6.1,5.2s-14.6-5.8-20.8,4.5s0,20.5,3.6,23.1
		c3.6,2.6,7.8,4.8,11,5.4C229.2,561.9,233.9,561,233.9,561L233.9,561z"/>
</g>
<g id="ojos_gato">
	
		<path id="path3858_1_" sodipodi:cx="62.827042" sodipodi:cy="458.31607" sodipodi:end="6.278847" sodipodi:open="true" sodipodi:rx="28.701563" sodipodi:ry="19.096708" sodipodi:start="0" sodipodi:type="arc" class="st1" d="
		M411.7,376.7c0,9.4-10,17.1-22.4,17.1s-22.4-7.6-22.4-17.1c0-9.4,10-17.1,22.4-17.1C401.6,359.7,411.7,367.3,411.7,376.7"/>
	
		<path id="path3860_1_" sodipodi:cx="62.827042" sodipodi:cy="458.31607" sodipodi:end="6.278847" sodipodi:open="true" sodipodi:rx="28.701563" sodipodi:ry="19.096708" sodipodi:start="0" sodipodi:type="arc" class="st1" d="
		M349.8,372.9c0,8.2-8.7,14.8-19.5,14.8c-10.8,0-19.5-6.6-19.5-14.8s8.7-14.8,19.5-14.8C341.1,358,349.8,364.7,349.8,372.9"/>
	<path id="path3884_1_" inkscape:connector-curvature="0" class="st2" d="M324.6,379.8c0,0-3-1-3-7.2c0-6.2,4.6-8.5,4.6-8.5
		S322.1,372,324.6,379.8z"/>
	
		<path id="path3860-3_1_" sodipodi:cx="62.827042" sodipodi:cy="458.31607" sodipodi:end="6.278847" sodipodi:open="true" sodipodi:rx="28.701563" sodipodi:ry="19.096708" sodipodi:start="0" sodipodi:type="arc" class="st3" d="
		M359.5,387.8c0,4.7-5.3,8.4-11.9,8.4c-6.6,0-11.9-3.8-11.9-8.4c0-4.7,5.3-8.4,11.9-8.4C354.2,379.4,359.5,383.2,359.5,387.8"/>
	<path id="path3991_1_" inkscape:connector-curvature="0" sodipodi:nodetypes="csscccc" class="st4" d="M340.8,393.9
		c0,0-3.8-1.4-4.1-4.9c-0.3-2.6,0.1-3.6,2.9-5.8c2.5-2.1,4.8-2,4.8-2s-4.6,3.2-4.5,7.2c0.6,3.6,1.7,5.2,4.7,6.9L340.8,393.9z"/>
	<path id="path3981_1_" inkscape:connector-curvature="0" sodipodi:nodetypes="csscssc" class="st5" d="M347.8,395.6
		c0.7-0.7,7.3-3.6,7.1-6.5s-0.2-2.9-1.5-5c-0.7-1.2-5.8-3.5-5.8-3.5s8.1,0.4,10.1,5.5c1.4,3.3-1.1,6.2-2.8,7.3
		C353.3,394.6,347.8,395.6,347.8,395.6L347.8,395.6z"/>
	<path id="path3884-2_1_" inkscape:connector-curvature="0" class="st2" d="M390.4,383.7c0,0,2.7-0.9,2.7-6.8c0-5.9-4.2-8-4.2-8
		S392.7,376.3,390.4,383.7z"/>
</g>
<g id="Lisa">
	<path id="path3840_1_" inkscape:connector-curvature="0" class="st6" d="M403,319.5l13.4-6.5l5.1-0.9v10.6l2.8-0.3
		c2.3-0.3,4.6,0.3,6.5,1.5l6.1,4.6l2.2-2.5c1.1-1.5,2.4-2.8,4.3-3l5-0.9c1.7-0.2,3.1,0.5,4.6,1.3l3.6,1.9l3.8-4.4
		c0.7-0.8,1.7-1.4,2.7-1.7l2.4-0.6l3.8,0.3c1.1-0.1,2.2-0.6,3.1-1.4l2.6-3.4c0.1-0.1,0.1-0.2,0-0.3l-2.3-7.3
		c-0.5-1.5-0.7-3.2-0.6-4.8l0.6-9.2c0,0,5.8-2.1,11.2-6.1c6.8-5,3.7-11.6,3.7-11.6s30.4-4.8,52.6-19.1c17.9-15,10.1-22.5,6-25.4
		c-4.1-2.9-7.4-4.8-11.9-8c-5.8-4.3-9.6-9.8-9.6-9.8l-4.7,5.1l-2.9-4.7l-2.2-2.7l-5.2-2.1c-2.9-1.2-6-1.4-9.1-0.8l-9.9,2l-18.7,4.2
		l-4.9,10.7c-3.6,5.6-10.3,11.4-16.4,14.1l-10.6,3.1l-12.4-1.1c-1.9-0.2-6.7-0.7-8.1-2l-12.4-9c-0.6-0.5-5.4-9.7-5.8-10.4
		c-1-1.8-2.7-6-3.8-14.2c-0.8-6,1.1-12.2,3.7-17.7l3.4-5.4c2.2-4.5,5.6-6.7,9.9-9.3l6.7-4.1l15.6-2.7c11.6-2.1,26.7,11.9,26.9,10.8
		c0.6-2.3,2.5-4.4,2.7-6.4c0.3-2.7,9.8-12.1,15.9-14.3c2.9-1.1,4-2.4,17.6-3.4c16.3-1.2,29.2,19.9,29.2,19.9s16.1-21.8,21.9-32.5
		c5.2-8.7,5-11.7,5-11.7s-11.8-6.9-18-9.5c-6.2-2.6-15.2-8-15.2-8l-3.8-34.3c-0.3-2.5-2.2-10-4.6-10.9c-4.1-1.5-10.8,2.2-17.8,3.4
		c-11.1,3.2-23.3,7.2-23.3,7.2S454,54.5,448.5,49.2c-3.5-3.4-6.5-6-8.8-7.1c-1.3-0.7-3.2-0.3-4.2,0.8c-3.3,3.7-11.9,13.3-16.8,18.9
		c-6.2,7-13.2,16.3-13.2,16.3s-15.6-6-28.5-9.9c-12.8-3.8-19.8-3.9-19.8-3.9s-7,16-7.8,25.9c-0.8,9.9-1.8,18.6-1.8,18.6
		s-18.8,7.3-27.9,10.8c-6.6,2.5-14.3,4.6-17.4,5.7c-1,0.4-1.2,3.1-0.8,4.1c2,4.9,8.5,17.5,11.4,23.2c3.5,7,6.4,13.2,6.4,13.2
		s-12.9,19.7-18.2,27c-5.2,7.3-6.7,9.3-6.7,9.3s-5,5.9,4.1,9.1c9.1,3.2,35.9,21.9,35.9,21.9s-3.2,18.1-4.7,26
		c-1.5,7.9-2.6,18.7-2.6,18.7s25.2,4.7,31.6,4.4s11.4,0.3,11.4,0.3s2.9,16.1,5.5,20.5c2.6,4.4,0.8,9.3,9.9,7
		c9.1-2.3,16.7-7.5,16.7-7.5 M505.3,423.2"/>
	<path class="st7" d="M521.1,560.1c0,0,2.8,14.3,4.2,26.6c1.4,12.2,2.1,30.3,2.1,30.3s-2.8,4-2.9,9.2s0,8,0,8s5.1,2.1,10.7,2.8
		c5.6,0.7,9.1,0,9.1,0s1.7-10.8,11.2-21c9.4-10.1,18.2-11.2,18.2-11.2s1.4-10.7,0-24.9c-1.4-14.2-2.4-19.8-2.4-19.8s-4.5,0.3-7.3-7
		s-2.8-7.3-2.8-7.3l-8.7-4.7c0,0-1.3,11.6-3.4,17.5c-2.1,5.9-4.3,11-4.3,11s-9.4-9.4-14-14.3c-4.5-4.9-9.4-7-9.4-7V560.1z"/>
	<path class="st7" d="M474.3,570.7c0,0-1.4,14-2.1,25.5c-0.7,11.5-3.5,22.7-3.5,22.7s-16.1-1.9-26.9,5.1s-17.1,21.8-17.1,21.8
		l-6.3-3.5c0,0,4.9-37.7,7-56.3c2.1-18.5,2.4-32.8,2.4-32.8l10.5-8.4l12.2,27.3c0,0,2.1,2.8,4.5,0c2.4-2.8,7.2-9.4,7.2-9.4
		S463.8,569,474.3,570.7z"/>
	<path class="st7" d="M558.8,639h16.8c0,0,3.5-6.3,10.8-12.2s12.2-5.9,12.2-5.9s-3.8-4.9-7-6.3c-3.1-1.4-7-3.5-7-3.5
		S562.3,613.9,558.8,639z"/>
	<path class="st7" d="M478.8,630.3c0,0,4.9,4.5,7,6.9c2.1,2.5,2.1,2.5,2.1,2.5s-17.8-2.4-30,3.5c-12.2,5.9-13.3,11.2-13.3,11.2
		l-7-2.8c0,0-1.4-2.8,0-6.3c1.4-3.5,4.1-13.1,18.8-16.2C471,625.9,478.8,630.3,478.8,630.3z"/>
	<path class="st7" d="M401.9,470.7c0,0,12.2-0.1,21.3-1.1c9.1-1,15.4-4.5,15.4-4.5s13.6,2.1,21.3,0c7.7-2.1,8.8-5.1,14.1-8.9
		c7.1-5.2,0-8,0-8s4.8-2.3,6.6-7.2s-0.7-7.2-5.6-8s-7.9,5.5-12,5.5s-4.1,0-4.1,0s6.6-4.8,9.4-8.7c3.9-5.3,0.6-13.5-7-10
		c-7.6,3.5-9.6,9.1-14.3,9.3c-7.2,0.3-7-0.8-7-0.8s5.2-2.6,5.2-6.4c0-3.8-0.5-12.7-8.5-9.5c-3.6,1.4-6.1,10.9-15.3,18.6
		c-4.8,4.1-12.1,3.8-12.1,3.8S395.3,444.5,401.9,470.7z"/>
	<path class="st7" d="M372.3,465.4c0,0-2.5,0.2-5.2-1.1c-2.7-1.3-5.5-2.8-5.5-2.8s-0.7-11,0.8-18.2c1.9-8.8,6.1-15.2,6.1-15.2
		s1,2,2.7,2.3s4.4-3.5,4.4-3.5s5.4,0,6.6,0.5c1.2,0.5,2.3,2,2.3,2s-7.2,4.9-10.4,17.2S372.3,465.4,372.3,465.4z"/>
	<path class="st7" d="M338.1,436.8c0,0-2.9-3.7-4.7-9.8c-1.8-6-0.5-10.7-0.5-10.7s5.4-1,9.1-1.4c3.7-0.5,6.6-1,6.6-1
		s-0.3,3.4,0.9,5.5c1.2,2.1,1.6,3.2,1.6,3.2S342.2,427.6,338.1,436.8z"/>
	<path class="st7" d="M548.1,391.6c0,0-4.6,7.8-6,10.2c-1.4,2.4-0.9,6.6-4.7,4.5c-3.8-2.1-11-7.1-15.9-6.1c-4.9,1-10.4,8.3-3.1,11.4
		c7.3,3.1,12.4,3.7,6.9,10.3c-6.8,8.2-15.4,11.2-15.4,14.7c0,3.5,3.6,9.4,8.8,8s14.6-6.8,14.6-6.8l-10.1,12.3c0,0-6.1,7.8-1.2,10.2
		c4.9,2.4,8.8-0.7,8.8-0.7s1.1,5.5,7,4.5c5.9-1,19.9-10.4,22.7-16.3c2.8-5.9,5.9-15,5.9-15s14.7-14.3,19.6-29.4
		c0,0,10.1-17.1-12.9-36.7c-18.5-15.7-39.1-23.1-52.1-28.7c-12.9-5.6-29-10.1-29-10.1s-4.4,4-7.9,4s-5.5-1.1-5.5-1.1s-2.6,8-8.2,9.4
		c-10.1,2.5-11.9-2.2-11.9-2.2s-4.1,6.8-10,7.1s-11.7-4.9-11.7-4.9s-7.6,4.7-10.8,4.8c-3.6,0.2-7.9-2.1-7.9-2.1s-0.3,6.1,0.1,9.3
		c0.3,3.1,2.2,7.4,2.2,7.4l4.6-1.6c0,0,0.5-0.6,3.3-0.6s4.4,1.8,4.4,1.8s3.2,1.3,5.3,1.7c2.1,0.3,4.6,2.6,4.6,2.6s2-2.8,3-4.2
		c1-1.4,0.5-2.7,0.5-2.7l1.8,9.5l2.8,1.3c0,0,7.1-1,15.5-1.7c8.4-0.7,10.9-2.1,10.9-2.1s1.4-1.2,14.3-2.6
		c12.9-1.4,15.4-1.9,15.4-1.9l10.6,14.4C517.4,373.5,533.1,379.2,548.1,391.6z"/>
	<path class="st8" d="M484.7,556.2l10.5,15.6l5.2-3c0,0-3.8-13.6,0-28c3.8-14.3,11.9-26.8,11.9-26.8l-3.5-6
		C508.8,508,490.7,529,484.7,556.2z"/>
</g>
<g id="gato_1_">
	<path class="st9" d="M421.2,364.7c0,0,3.8-1.1,7.1,0c3.3,1.1,7.1,3.8,7.1,3.8s-2.4,2.3-7.1,1.5
		C423.6,369.2,421.2,364.7,421.2,364.7z"/>
	<path class="st9" d="M445.1,379.2c0,0,1.8,2.6,2.6,4.6c0.8,2,1.6,4.7,1.6,4.7s-4,1.7-6.5,2.6c-2.4,0.9-6.7,0.7-6.7,0.7L445.1,379.2
		z"/>
	<path class="st9" d="M449.6,404.5c0,0,0.9,4.7-0.2,7.4c-1.1,2.7-3.1,5.2-3.1,5.2s-4.3-6.2-5.2-6.3c-0.9-0.1,0.8-1,0.8-1
		L449.6,404.5z"/>
	<path class="st9" d="M450,367.5c0,0,21.4-3.7,43.7-0.2c22.3,3.5,42.9,17.3,50.8,21.6c5.4,3-1,8.9-1,8.9l-6.2,8.8
		c0,0-3.1-5.5-11.4-5.6c-8.3-0.2-12.4,1.1-11.9,6.8c0.5,5.7,7.7,6.1,10.5,7.8c2.7,1.7,3.1,5.9-1.6,9.8s-12.4,6-13.4,9.3
		c-1,3.4-0.9,8.5,3.3,10c4.2,1.5,8.9-1.1,12.4-2.5c3.5-1.4,6.3-3.8,6.3-3.8s-4.2,7.2-7.7,10.9c-3.5,3.7-7.7,6.5-3.5,10
		s9.7,0.9,9.7,0.9s1.6,8,10.5,4.8c4.7-1.7,9.5-5.7,16.5-13.2s8-15.6,8-15.6l8-9.8c0,0,7,16,8,28.4c1,12.5,1.9,40.8-0.2,50.2
		c-2.1,9.4-2.5,31.8,8,34.8c13.8,4,18.1-13.2,19.5-20.1c1.1-5.5,2.3-22.3,1.1-41c-1-15.8-11.2-29.4-9.7-58.6
		c1.2-22.1,8.2-29,17-31.8c8.7-2.8,9,7.9,7.6,12.2c-1.4,4.3-6.7,27.7-1.1,49.9c9.1,35.6,10.9,54.2,3.9,76.9
		c-7,22.7-15.9,34.1-33.7,37.9s-32.1-12.6-34.8-22.4c-2.8-9.9-3.5-26.3-3.5-26.3s-0.8,2.1-8.8,2.4c-8,0.3-8,0.3-8,0.3
		s-13.9,4.2-16.7,26.9c-2.8,22.7,1,23.3-1.5,27.3s-16,13.1-21.1-4.5s6-41.8,9.8-48.3c1.1-1.9,2.3-3.8,2.3-3.8l-3.5-6
		c0,0-15.7,20.3-19.9,34.2c-4.2,14-7.8,26.8-14.4,25s-10.3-5.8-11.6-14.9c-1.3-9.1,7.8-23.8,11.5-29.7c3.8-5.9,7.8-12.6,7.8-12.6
		s-5.3-11-6.8-24c-1.9-16.4,3.8-20.9,3.8-20.9l-8.2-9.8c0,0,6-2.5,6.4-6.3s-1.4-4.4-1.4-4.4s3.5,0.1,4.9-8c1.4-8.1-5.6-7.5-9.1-5.2
		c-3.5,2.3-8.9,2.7-8.9,2.7s6.9-4.4,8-10.5c1-6.1-3.6-9.4-8-7.3c-4.4,2.1-8.4,5.6-8.4,5.6s4.3-7.3,6.1-21.3
		C461.3,389.9,455.5,374,450,367.5z"/>
	<path class="st9" d="M365.1,328.2c1.3,8.1,7.7,17.3,20.6,6.3c13.7-11.6,21.9-18.2,25.7-20.6s10.8-3,10.7-0.2
		c-0.1,2.9-2.8,4.7-3.8,11.1c-1,6.4-1.4,14.3-0.4,25.7c1.2,12.4,3.2,20.3,12.4,19.2s15.6-10.2,15.6-10.2s1.3,6.2-0.7,14.8
		c-2,8.6-10.5,16.9-10.5,16.9s3.4,0.6,8.3-0.6c4.9-1.2,10.5-5,10.5-5s0.7,8.5-2.9,13.6c-3.5,5.1-11.5,12-14.4,12
		c-2.9,0.1-4.2,1.4-7.6,7.6c-3.4,6.2-7.4,11.9-7.4,11.9s-5.2-3.8-8.1-5.4c-2.9-1.6-2-2.8-11.6-2.5s-16.7,6.1-16.7,6.1
		s-1.5-2.2-4.1-2.4c-2.7-0.3-7.4-0.4-7.4-0.4s2.1-2.8,3.1-5.2c1-2.4,2.4-7,2.4-7l-11.9-1.4l1.4,15.2c0.2,0.6-6.7-1-12.9-3.3
		c-5.7-2.1-7.1-10.8-7.1-10.8s-5.8,0.3-14.6,1c-8.7,0.7-18.2,3.5-30,5.2s-13.8-6.6-9.4-14.3c4.4-7.7,21.9-22.7,21.9-22.7
		s2,1.7,6.5,3.8c4.5,2.1,10.7,1.1,10.7,1.1s1.2,4.1,3.3,4.5c2.1,0.4,3.3,3.7,8.5,3.7c5.2,0,16.4-1,14.1-8.5
		c-1.8-5.7-9.5-8.1-9.5-8.1s-1.1-3.7-1.1-6.1c0-2.4,2-5.6-4.7-12.1c-7.8-7.6-20.1-4-20.1-4s0.2-3,3.4-8.6c3.1-5.6,9.5-4.5,9.5-4.5
		s1-3.2,8.9-18.4c10.9-21.1,18.7-19.5,18.7-19.5S363.8,320.1,365.1,328.2z M388.9,359.3c-12.5,0-22.6,7.8-22.6,17.3
		c0,9.6,10.1,17.3,22.6,17.3c12.5,0,22.6-7.8,22.6-17.3C411.5,367,401.4,359.3,388.9,359.3z"/>
	<path class="st9" d="M400.9,472.7c0,0,0,11.7-10,12.4s-16.1-2.9-18.4-12.4s2-28.5,3.5-31.8c1.4-3.2,6-12.8,15.8-15.3
		c9.9-2.5,9-3.7,18.1-2c9.2,1.7,11.5,7.3,11.5,7.3s-5.3,1.7-9.7,3.2c-4.3,1.5-7.6,1.2-11.5,15.8
		C396.3,464.6,402.1,467.1,400.9,472.7"/>
	<path class="st9" d="M367.9,428.4c0,0-6.8,8.7-7,22.4c-0.2,13.7,1.9,22.3-3.2,25.4c-5.2,3.1-13.1,6.6-19.9,2.4s-6.4-11.9-5.2-18.6
		c1.2-6.6,3.2-22.1,6.9-27.4s11.2-11,11.2-11s3.8,6.2,16.8,7.1"/>
</g>
<g id="Collar">
	<path class="st10" d="M418.2,342.9c0,0,6,3.9,11.5,1.1c5.7-2.9,9.2-5.8,8.4-9.7c-0.8-3.9-0.8-7.1-7.2-10.5c-5.9-3.1-11-0.6-11-0.6
		S415.4,335.9,418.2,342.9z"/>
	<path class="st10" d="M389,331.8c0,0-6-7.7-2.1-14.9c4-7.2,15.1-5.4,15.1-5.4l0.2,9.4L389,331.8z"/>
	<path class="st10" d="M437.9,328c0,0,3.6-6.6,12.7-5.6c9,1,9.3,11,8.7,13.2s-2.1,8.1-8.9,9.5s-9.9-1.1-11.2-2.3
		c-1.4-1.2-2.4-2.5-2.4-2.5S439.6,337.7,437.9,328z"/>
	<path class="st10" d="M457.8,323.3c0,0,0.4-3.3,7-4.7c6.6-1.4,9.6,2,11.3,4.4s3.8,6.7,0.5,12.4c-3.3,5.7-10.9,5.3-13,5.6
		c-2,0.3-5-1.2-5-1.2s1.3-5.3,0.4-8.9c-0.9-3.6-2.3-5.6-2.3-5.6L457.8,323.3z"/>
	<path class="st10" d="M471.1,318.3c0,0,0.8-2.6,5.6-5.1s10.5-5.1,15.2,1.9c4.7,7-1.5,14.1-3.7,14.9c-2.2,0.8-3.9,2.2-5.8,1.8
		c-1.9-0.4-3.9-1-3.9-1S479.6,323.3,471.1,318.3z"/>
	<path class="st10" d="M473.1,302.4c0,0,4.6-1.2,9.3,0c4.6,1.2,4.9,8,4.9,8s-1.7-1-4.9,0.2s-6.4,3.4-6.9,3.3
		C475,313.8,471.3,308.8,473.1,302.4z"/>
</g>
<g id="Lisa_ropa">
	<path class="st11" d="M405.6,469.3c0,0-0.3,21-10.8,45.8c-10.5,24.8-19.3,42.7-19.3,42.7s15.5-10.2,20.4-13.7
		c4.9-3.5,8-9.5,10.1-2.2c2.1,7.3,3.8,25.4,3.8,25.4l28.7-23.3l11.2,25c0,0,1.9,6.9,5.6,2.3c3.6-4.6,7.2-9.4,7.2-9.4
		s-2-8.7,2.9-21.3s15.6-24.8,15.6-24.8s2.3-4.5-0.4-8c-2.7-3.5-5.8-15-6.2-27.6c-0.3-12.6,3.1-13.3,3.1-13.3l-6.9-9.4
		c0,0-10.1,6.3-21.4,6.7c-12,0.4-12.8,0.8-12.8,0.8S424.8,469.7,405.6,469.3z"/>
	<path class="st11" d="M521.2,547.2c0,0,10.2,9.1,15.2,14.2s7.1,8.3,7.1,8.3s5.5-13.1,7.3-18.9c1.9-5.8,1.5-9,1.5-9l9.1,3.1
		c0,0-4.5-10.1-4.5-19.6c0-9.4,0-9.4,0-9.4s-4.3,1.7-8.8,2.4s-8,0.3-8,0.3s-9.6,6.2-12.4,11.8C524.9,536,521.2,547.2,521.2,547.2z"
		/>
	<path class="st11" d="M579.7,519.6c0,0,3.8,2.7,12.9,4.1c9.1,1.4,11.5,0.5,11.5,0.5s-7.3-9.8-11.5-16.8c-4.2-7-9.9-15.8-9.9-15.8
		S579.7,512.2,579.7,519.6z"/>
	<path class="st11" d="M469.8,365.9c0,0,13.6-3.7,21.7-4.9c8.1-1.2,16.4-0.8,16.4-0.8s5,5.6,7,8.3c2.1,2.7,2.8,5.9,2.8,5.9
		s-16.2-6.1-24-7.1C486,366.3,469.8,365.9,469.8,365.9z"/>
	<path class="st12" d="M418.2,642.4c0,0-2.8,2.5-2.8,4.6s0,10.1,0,10.1s20.6,14.7,46.1,12.8c25.4-1.8,33-5.5,33-5.5
		s0.5-6.9-1.6-12.6c-2.1-5.7-5.5-11.5-5.5-11.5s-13.4-4.2-23-0.5c-9.6,3.7-18.7,14.5-18.7,14.5l-8.9-3c0,0-1.2-4.7,1.5-8.4
		c2.8-3.7,9.5-9.6,16.7-12.8c7.2-3.2,11.8-1.7,15.9-1.7c4.1,0,9.6,2.1,9.6,2.1s-2.3-1.8-5.5-4.8c-3.2-3-6.2-4.6-6.2-4.6
		s-14-2.7-23.2,1.2c-15,6.4-19.2,20.3-19.5,22.8C425.8,647.3,421.6,646.8,418.2,642.4z"/>
	<path class="st13" d="M523.8,632.6v10.8c0,0,1.4,1.8,6,3c4.6,1.1,25.4,7.8,48.8,4.4c23.4-3.4,31.2-6.4,31.2-6.4s0-5.1-3.3-11.9
		c-2.6-5.4-8.8-11.7-8.8-11.7s-10.4,2.6-14.9,7.1c-4.6,4.6-6.1,10.7-6.1,10.7h-16.7c0,0-2,1-1.8-1.7s4.3-13,10.7-18.5
		c6.4-5.5,17.2-8.5,17.2-8.5s-6.9-2.8-9.2-3.9c-2.3-1.1-5-2.1-5-2.1s-11.6,4.6-18.5,12.4c-8.1,9.2-8.6,20.8-8.6,20.8
		s-8.5,0.2-13.1-1.1C527,634.7,523.8,632.6,523.8,632.6z"/>
	<path class="st11" d="M507.4,512.5c0,0-11.1,16.9-17.4,28.5c-6.3,11.6-6.6,15.9-6.6,15.9s4.4,7.8,6.6,10.8c2.1,3,4.2,7,5.9,5.8
		c1.7-1.2,3.5-3.1,3.5-3.1s-1.9-12.1-0.5-24.3c1.4-12.2,6.6-18.6,8.6-22.6c0,0,2.7-6.1,2.8-6.4c0.1-0.3,0.6-0.7,0.2-2.4
		c-0.4-1.7-1.3-3.2-1.3-3.2L507.4,512.5z"/>
</g>
<g id="dientes">
	<path class="st14" d="M306.2,421.6c0,0-0.8,4.2,1,6.2c1.7,1.9,3.1,3.3,3.1,3.3s3.1-3.4,3.8-6c0.7-2.6-0.3-5.2-0.3-5.2L306.2,421.6z
		"/>
	<path class="st14" d="M367.6,413.8l1.4,12.6c0,0,0.6,5,2.8,3.5c2.2-1.5,7.6-7.8,7.9-10.2c0.3-2.4,1.2-5.1,1.2-5.1L367.6,413.8z"/>
</g>
<g id="ojos_lisa">
	<path class="st15" d="M462.6,176.7c4.5-14.7,18.2-25.3,34.3-25.3c16.3,0,29.4,10.8,34.1,25.6c0.5,1.6,0.9,3.3,1.2,5
		s0.5,3.5,0.6,5.3c0.1,2.5-0.2,5.1-0.9,7.7c-0.5,2.2-1.3,4.3-2.2,6.4c-1.4,3.3-3.1,6.3-4.7,8.8c-3.3,5-6.4,8-6.6,6.6
		c-1.7-11.7-16.4-11.5-21.5-10.5c-9.4,1.7-20.5,5.9-25.2,5.4c-0.8-0.1,0.1-2.8,0.2-3.4"/>
	<circle class="st15" cx="434.9" cy="202.7" r="38"/>
</g>
<g id="Gato_collar">
	<path class="st16" d="M444.8,419.8c0,0,1.4-2.4,2.7-7.2c1.3-4.8,2-11.1,2-11.1s2.6-2.5,3.5-7.4s1.2-7.7,1.2-7.7l-5.3,2.7
		c0,0,0.5-3.1,0-5.2s-4.1-5.8-4.1-5.8s1.4-3.8,1.7-8.6c0.3-4.7,0.3-4.7,0.3-4.7s2.4,1.7,4.5,4.7s2.9,5.6,2.9,5.6s-3.1-3-3.6,2.2
		c-0.4,4.6,3.6,4.7,4.9,4.1s0.9-1.8,0.9-1.8s3.1,7.4,3.1,14.4c0,7-0.6,12-0.6,12s-1.8-1.9-3.8-0.7c-2,1.2-2.4,3.6-1.9,4.6
		c0.5,1,1.7,1,2.7,0.7c1-0.3,2.4-1,2.4-1s-0.8,4.9-2.5,9.1s-3.7,7.5-3.7,7.5s-3.3,1.2-5.9,1.7c-2.6,0.5-5.6,0-5.6,0
		S444.3,427.3,444.8,419.8z"/>
	<path class="st17" d="M418.9,360.8c0,0,0.1,0.8,0.6,1.7c0.6,0.9,1.6,1.9,1.6,1.9s2.9-2,8.1,0s7.5,4.2,7.5,4.2s2.9-1.4,4.3-3.1
		c1.4-1.7,2.5-2.7,2.5-2.7s-4.1-2-7.7-2.9c-3.6-1-5-0.8-5-0.8s0.7,2.7-3,2.8c-3.7,0-2.8-2.8-2.8-2.8S420.4,358.9,418.9,360.8z"/>
	<ellipse class="st10" cx="427.6" cy="359.9" rx="3.1" ry="2.1"/>
	
		<ellipse transform="matrix(0.9127 -0.4085 0.4085 0.9127 -114.948 218.1473)" class="st10" cx="453.2" cy="378.2" rx="2.7" ry="4.1"/>
	
		<ellipse transform="matrix(0.3565 -0.9343 0.9343 0.3565 -87.5686 688.623)" class="st10" cx="456.1" cy="407.9" rx="3.7" ry="2.4"/>
</g>
<g id="sombras">
	<path class="st18" d="M470.8,576.3c0,0-4.9,3.4-9.3,2.4c-4.4-1-6.6-7.8-6.6-7.8s-1.2,5.6-5.6,5.6s-9.6-8.6-9.6-8.6s1.2,15.2,0,26.9
		c-1.2,11.8-2.4,21.3-2.4,21.3s-0.2,0.7,6.9,0c7.1-0.7,17,3.3,17,3.3s-19,1.7-24.8,8.3c-5.9,6.6-12.5,17.2-12.5,17.2l-4.9-2.7
		c0,0,4.4-30.9,5.9-49.2c1.5-18.4,2.9-40.7,2.9-40.7l7.7-6.4c1.1-0.9,3.4-1.1,4,0.2l10.8,23.6c0.7,1.4,3.5,1.7,4.4,0.5l7.8-8.4
		c0,0-1.7,1.3,2.7,4.5c4.4,3.2,8.1,3.7,8.1,3.7L470.8,576.3z"/>
	<path class="st18" d="M522,571.4c0,0,3.4,15.2,4.2,26s0.2,16.2-1,20.6c-1.2,4.4-1.2,15.3-1.2,15.3s7.5,2.7,11.2,3s7.7,1.1,8.7,1.1
		c1,0,2.1-12.7,6-17.1c3.9-4.4,8.9-11.1,8.9-11.1s-5.9-1-9.4,2c-3.4,2.9-5.6,5.4-5.6,5.4s-0.7-23-1.7-33.3c-1-10.3-1-15.2-1-15.2
		s-6.1-9.1-11.8-13.5c-5.6-4.4-7.3-5.1-7.3-5.1S519.7,559.9,522,571.4z"/>
	<path class="st18" d="M550.2,557.9c0,0,3.2,6.4,8.8,9.8c5.6,3.4,12,6.1,12,6.1s0.7-4.9,0-10.3c-0.7-5.4-1.7-5.6-1.7-5.6
		s-3.9-2.9-6.1-7.1c-2.2-4.2-2.4-6.1-2.4-6.1l-5.9-3.4l-2,1.7C552.9,542.9,551.2,553.2,550.2,557.9z"/>
	<path class="st18" d="M585.9,385.6c0,0-1.5,13.2-8.3,25.2s-17.1,18.9-17.1,18.9s-4.2,13.4-10.5,22c-6.4,8.6-16.7,12.8-16.7,12.8
		s10,2.2,20.6-9c10.5-11.1,9.6-19,9.6-19s13.7-12,18.1-23C585.9,402.5,589.1,394.9,585.9,385.6z"/>
	<path class="st18" d="M522.7,455.7c0,0,5.1-0.7,9.1-2.7s8.8-5.6,8.8-5.6s-4.2,4.7-8.9,8.3C526.9,459.4,524.4,457.9,522.7,455.7z"/>
	<path class="st18" d="M475.5,440.8c0,0-12.5,11.8-17.4,12.9c-4.9,1.1-22.3,3.5-30.1,3.5s-14.7,1.7-14.7,1.7s-5.1-1.2-4.2-9.1
		s4.9-13.5,4.9-13.5s-4.4,0.2-6.6,1.2c-2.2,1-6,5.4-7.2,13.5c-1.2,8.1,1.8,19.5,1.8,19.5s4.7-0.9,12.7-0.4s20.8-6.9,20.8-6.9
		s14.4,2.5,24,0.1c9.6-2.4,11.8-7.2,13.7-8.7c2-1.5,2.2-6.4,2.2-6.4s-1.5,0.8-7.3,3.8c-5.9,3-8.6,3-8.6,3s12.7-6.6,15.9-10
		c3.2-3.4,3.2-6.6,3.2-6.6L475.5,440.8z"/>
	<path class="st18" d="M361.5,460.2c0,0,2,1.7,3.7,2.4c1.7,0.7,7.8,2,7.8,2s-1.5-10.3,2-19.8c3.4-9.6,10.8-16.2,10.8-16.2
		s-0.7-1.5-3.7-1.5c-2.9,0-6.9,0-6.9,0s-0.7,1.7-1.3,2.4c-1.5,1.8-3.3,2.3-4.1,0.8c-0.7-1.5-1.2-3.2-1.2-3.2
		S360.6,437.6,361.5,460.2z"/>
	<path class="st18" d="M331.9,415.6c0,0-1.5,6.4,0,10s6.1,9.6,6.1,9.6s1-3.7,4.7-8.1c3.7-4.4,7.6-5.9,7.6-5.9s-2.2-1-2.2-2.7
		s-0.5-4.2-0.5-4.2L331.9,415.6z"/>
	<path class="st18" d="M402.6,319.5l-1.2-35.3c0,0,1.1-0.6,3.5-2.7s3.4-2.3,3.4-2.3s2.2,13.6,2.2,22.2s0,14.4,0,14.4L402.6,319.5z"
		/>
	<path class="st18" d="M402.6,279.3c0,0-5.6,0.4-7.1-4.7c-1.5-5,4.3-7.3,4.3-7.3s-0.7-1.1-4.5-2.4c-3.9-1.3-5.2,2.6-5.3,4.5
		s0.9,6,0.9,6s-3.4-1.1-3.7-4.5c-0.4-3.4,1.7-6.2,1.7-6.2s-3.2-0.5-4.1,1.4c-0.9,1.9-2.1,3.7-2.1,3.7s-1.7-1.9,1.1-5.2
		c2.8-3.2,3.7-3.2,3.7-3.2s-2.1-3.4-0.9-5.6c1.1-2.2,2.4-3.7,4.3-4.3s1.9-0.6,1.9-0.6s-13.6,0.6-15.3,11.9
		c-1.7,11.4,5.6,19.6,14.4,19.6C400.5,282.4,402.6,279.3,402.6,279.3z"/>
	<path class="st19" d="M401.7,286.2l0.2,15c0,0.8-2.2,1.3-3,1.6c-3.1,1.3-11,4.7-13.1,5.4c-2.6,0.9-7.5,4.6-9.3-0.5
		c-1.5-4.2-4-18.9-5.3-23.6c-0.2-0.9-2.5-3.1-3.5-3.1l-37.7-0.4c-1.3,0-4.1-2.4-3.9-3.6l7.9-40.6c0.1-0.8-0.3-1.6-1-2.1l-38.3-24.5
		c-1-0.7-2-6.2-1.3-7.2l25.9-32.9c0.5-0.6,1-1.6,0.7-2.4l-18.3-37c-0.6-1.1,0.1-4.4,1.3-4.9l39.7-14.9c0.7-0.3,5.1-3.2,5.2-3.9
		c0.9-6,2.9-28.2,4.9-33.3c1.5-4,3.2-7.1,4-8.6c0.4-0.7,1.1-1.1,1.8-1.1h0.1c1.3,0,2.3,1.2,2.1,2.5l-4.9,24.1c0,0.1,0,0.2,0,0.3
		l-1.2,31.4c0,0.8-0.5,1.5-1.2,1.8c-4,2-17.5,8.8-20.5,10.1c-3.5,1.5-8.4,10.3-3.2,18.5c5.2,8.2,10.3,18.1,11.9,24.2
		c1.7,6.2-2.4,8.6-6.2,13.6c-3.7,5-10.8,12.3-2.2,19.2c8.6,6.9,19.8,15.3,19.8,22.4c0,7.1-1.3,14-1.3,14s-1.9,5.2,5.6,7.3
		c4.8,1.3,7.5,1.6,8.7,1.6c0.6,0,1.1-0.2,1.5-0.6c1.5-1.5,6.1-5.6,12.2-7.1c7.5-1.9,11-2.6,13.4-1.7c0,0,0,0,0.1,0
		c2.2,0.9,1.3,4.3-1.1,4c-4.3-0.4-7.3-0.1-10.9,3.9c-6.5,7.1-5.6,20.9,0.2,26.2s11.5,6.2,14.2,5.4c2.6-0.7,4.4,0,4.4,0L401.7,286.2z
		"/>
	<path class="st20" d="M413.9,558.5c0,0,7.7-14.5,10.6-31.7c2.8-17.1,2.3-46.4,2.3-46.4s9.8-0.9,14.1-1.6c4.2-0.7,17.1-4.7,19.9-3.3
		c2.8,1.4,8,6.1,7,8.7c-0.9,2.6,1.2,14.8,3,19.7s3.3,11.7,0,15.7s-13.4,19.5-13.8,26.3c-0.5,6.8,0.9,19.9,0.9,19.9l-17.4-23.9
		C440.6,541.8,417.4,557.3,413.9,558.5z"/>
	<path class="st20" d="M530.5,527.9c0,0,7.8,7.5,8.9,6.8c1.1-0.7,2.2-3.4,2.2-3.4l4.7,22.1l-5.2,9.5l-19.5-17.5
		C521.5,545.4,526.2,528.6,530.5,527.9z"/>
	<path class="st21" d="M446.3,653.9c0,0,0.4,2.3,5.2,6.1c4.8,3.9,8.7,6.3,8.7,6.3s-11.9-0.2-22.5-2.5c-10.6-2.3-22.3-8.9-22.3-8.9
		s-0.1-5.1,0-7.5s2-4.9,2-4.9s0.4,0.7,2.7,1.7c2.3,1,4.8,1.6,4.8,1.6s1.8-6.9,3.6-9.8s5.3-6.1,5.3-6.1l3.9,9.9l-2.9,7.1
		c0,0-1.2,1.6,0.6,2.9c1.8,1.3,7.6,3.1,7.6,3.1s1.4-0.1,2.2-0.5s0.7-0.4,0.7-0.4L446.3,653.9z"/>
	<path class="st21" d="M523.9,634c0,0,0.2,2.5,0,4.8c-0.2,2.3,0.5,4.7,0.5,4.7s12.8,5.3,27.1,5.7c14.2,0.3,24.6,0.4,31.7-0.7
		c7.1-1.1,11.4-2.4,11.4-2.4s-16.2-2-20.7-3.3c-4.5-1.3-6.7-4.5-6.7-4.5s-11-0.9-11.5-1.1c-0.5-0.2,0.3-3.9,0.3-3.9
		s-3.4-0.9-5.2-1.8s-4-3.9-4-3.9s-1.4,3-2,4.6c-0.5,1.5-1,4.4-3,4.4c-2.1,0-8.9-1.1-11.6-1.7c-2.7-0.7-5.8-1.7-5.8-1.7L523.9,634z"
		/>
	<path class="st10" d="M470.8,578.1c0,0-6.8,16.8-7.9,22.8c-1,6,0,16,0,16l2.1,7.6c0,0,6.8,5.2,8.1,8.6c1.3,3.4,7.1,7.3,7.3,13.1
		s3.3,14.7,3.3,14.7l6.7-1.3c0,0,1-7.3-4.2-18.9c-5.2-11.5-8.9-13.9-12.3-16.5c-3.4-2.6-6.3-4.7-6.3-4.7s1.6-10.5,3.1-21.2
		c1.6-10.7,1.6-20.2,1.6-20.2H470.8z"/>
	<path class="st10" d="M570.3,575.7l-1.3,27.3c0,0,8.4,4.7,15.2,9.2c6.8,4.5,15.2,12.5,17,17.7c1.8,5.1,3.7,9.9,3.7,9.9l-3.7,4.7
		l7.1-1.3c0,0,1.6-1.6,0-5.8c-1.6-4.2-7.3-15.5-15.5-22.8s-21-12.8-21-12.8S572.7,588.5,570.3,575.7z"/>
	<path class="st10" d="M492.2,328c0,0,42.8,11.7,68,30.1c25.2,18.4,24.1,25.6,24.1,25.6s-13.2-21.8-49.9-36.7
		c-36.7-14.9-45.7-16.3-45.7-16.3L492.2,328z"/>
	<path class="st10" d="M525.7,212.8l-2.4,2.9c0,0,1.8,12.4,11.3,16.7s14.9,14.2,5.1,20.7c-10,6.6-14.3,9.3-14.3,9.3
		s19.8-8.3,24-15.8c3.8-6.8,3.4-10.8-2.5-14.7s-11.6-7.7-13.9-10.1C530.7,219.5,525.7,212.8,525.7,212.8z"/>
	<path id="path3987_1_" inkscape:connector-curvature="0" sodipodi:nodetypes="cssssssscscssccssscscscssssccsssc" class="st22" d="
		M509.3,441c-6.4,4.4-2.9,2.2-11.7,1c-8.8-1.2-13.2-11.9-25.2-10.3c-2.8,0.4-10.2,4.2-10.5,6.4c-0.1,0.6,12.4-6.4,16.7-5.1
		c1.3,0.4,1.8,4,1.5,5.1c-0.6,1.9-2.3,5.4-2.2,5.8c0.6,3-13.8,4.5-12.3,7.5c0.5,1,8.7-4,9.2-3.1c0.3,0.6,2.4,1.3,1.8,3.7
		c-0.5,2-6.7,6.7-6.7,6.7s3-1.5,8.2,9.3c5.2,10.8,0.2-1.5,0.2-1.5s-7.2,4.4-2.4,22.4c4.8,18,7.2,24.4,7.2,24.4s-11,10.8-16.4,24.8
		s-7.8,26.6,3,32.1s14.8-10,15-12.8c0.2-2.8,2.6-16,7.4-22s17.6-27.2,17.6-27.2l1.2,8.8c0,0-10.4,16.8-12.4,29.3
		c-2,12.4,1.6,30.3,8.4,32.7c6.8,2.4,10.2,0.2,12.2-2.8s0.4-11.4,0.4-11.4l0,0c0,0-12,7.2-10-9.6s8-25.2,11.6-34.5
		c3.6-9.2,4.8-16.8-2-26.8c-6.8-10-10.4-14.8-6.8-24c3.6-9.2-1.2-13.2,7.2-7.6"/>
	<path id="path3936" inkscape:connector-curvature="0" class="st23" d="M407.9,432.1c0,0-17.2-7.9-19.8,9.7
		c-2.6,17.6-4.4,30.4-1.3,34.3s8.4,7,11.4,3.1c3.1-4,1.8-15.4,1.8-15.4l-2.6-1.8c0,0-0.4-4.8,2.6-15.4
		C403.1,436.1,405.7,434.8,407.9,432.1z"/>
	<path id="path3930" inkscape:connector-curvature="0" class="st24" d="M403.1,437.8c-2.1-0.6-6.9,6.3-7.7,13.7
		c-0.8,7.4-2.6,12.6-0.2,16.9c2.5,4.3,5.2,3.8,5.2,3.8s0.3-4.8,0.2-6.8c-0.2-2-1.1-3.8-1.8-4.1c-0.8-0.3,1.5-7,1.9-11.4
		c0.4-4.4,0.4-6.9,1.6-8.8c1.1-1.9,1.7-3,1.7-3L403.1,437.8z"/>
	<path id="path3934" inkscape:connector-curvature="0" class="st23" d="M351.9,476.9c0,0-6.9-2.5-4.4-16.2c2.5-13.6,3.9-20,8.3-24
		s10.6-5.6,10.6-5.6s-5.5,8-5.1,17.6c0.4,9.6,0.6,20.3-1.7,24.1C357.4,476.7,356.8,477.4,351.9,476.9z"/>
	<path id="path3932" inkscape:connector-curvature="0" class="st24" d="M361,442c0,0-0.8,10.7-0.6,19c0.2,8.4-3.2,12.1-3.2,12.1
		s-0.9-4.3-1-12.9C356.2,451.7,357.6,445.8,361,442L361,442z"/>
	<path id="path3938" inkscape:connector-curvature="0" sodipodi:nodetypes="sccsscsssccc" class="st25" d="M547,390.4
		c-30.8-17.2-43.7-24.5-70.4-24c-3.1-0.4-6-0.6-8.7-0.5c-11.6,0.1-18.3,1.6-18.3,1.6c2.8-0.4,3.3-0.3,6.5,3c13-2.5,29.9,1,41.2,4.2
		c26,7.5,34.3,11,47.1,23.8"/>
	<path id="path3943" inkscape:connector-curvature="0" class="st26" d="M618.9,388.6c0,0,3.8,5.9-1,18.9s-5.2,35.5,1.4,54.4
		c6.5,18.9,10.7,37.5,9.3,49.6c-1.4,12-1.4,12-1.4,12s7.2-23.1,2.8-39.6c-4.5-16.5-11.7-40.6-11.7-54.4s2.8-20,5.9-27.5
		C627.2,394.4,622.4,391,618.9,388.6L618.9,388.6z"/>
	<path id="path3989" inkscape:connector-curvature="0" class="st27" d="M539.7,484.4c0,0-5.2,5-2.2,12.8c3,7.8,2.8,11.4,1.4,15.4
		c-1.4,4-3.4,6.6-2.4,5.8c1-0.8,8.2-5,8.2-9.6c0-4.6-4.2-9.6-4.6-13.6C539.7,491.2,537.5,489.6,539.7,484.4L539.7,484.4z"/>
	<path id="path3994" inkscape:connector-curvature="0" class="st22" d="M546.1,503.9c0,0,4.6,3.2,10.2,2.6c5.6-0.6,16.6-4,16.6-4
		l-9.6,10.4c0,0,2,40.1,21,41.5s30.1-10.2,34.7-14.4c4.6-4.2,7-5.6,7-5.6S615.8,561,595,564c-20.8,3-26.8-6.2-31.3-15.4
		c-4.4-9.2-7-17.4-7.6-20.8c-0.6-3.4,0.2-13.8,0.2-13.8s-4.8,2.8-9,2.6c-4.2-0.2-6.6-0.6-6.6-0.6S546.7,513.9,546.1,503.9
		L546.1,503.9z"/>
	<path id="path3996" inkscape:connector-curvature="0" class="st28" d="M581.2,534.3c0,0-6-4.2-5.8-18.2c0.2-14,2.8-17.6,2-41.3
		c-0.8-23.6-4.2-46.5-4.2-46.5s8.4,16,8.4,34.9c0,18.8-2,40.3-3.2,46.7C577.2,516.3,577.8,525.9,581.2,534.3z"/>
	<path id="path3975_2_" inkscape:connector-curvature="0" sodipodi:nodetypes="csssssscsscssc" class="st29" d="M540.3,466.7
		c-10.6-1.5-24.3-7.6-27.3-1.5c-3,6.1-4.6,16.7,0.5,24.3c5.1,7.6,11.1,18.2,6.6,30.9c-4.6,12.7-9.6,23.8-10.6,33.4
		c-1,9.6-2.5,14.2,2,14.2c4.6,0,9.1-3.5,9.1-3.5s-1.5,17.7-9.6,14.7c-8.1-3-11.6-13.5-11.6-27.1s12.3-33.7,12.3-33.7
		c0.7-7.2-11.3-32.4-13.4-39.3c-4.1-13.8-0.3-29,15.4-33.1l8.7,16.4l6.9-1.2l2.8,2.5L540.3,466.7z"/>
	<path class="st30" d="M358.1,321.2c0.1,5.6,0.5,11.4,3.3,16.4c4.9,9.7,18.6,10.5,27,5c8.1-7,15.6-15,25.1-20.2
		c-2.7,14.8-4.5,31,1.8,45.2c2.5,8.4,12.7,11.9,20.5,8.9c1.4-0.5,3-1.4,1.7,0.8c-4.9,11.1,0,8.6-9.2,15.2c8,4.3,11.9,2,23,0.4
		c-1.1,3.5-14.1,8.9-17.5,10.8c-8.9,3.6-8.3,15.2-15.1,20.8c-15.8,3.8-28.9-9.2-44.6-10.7c-8.6-0.5-21.1,2-21-7
		c-12,0.2-18.8,2.1-30.7,3.9c-5.8,0.1-5.3,0.4-10.9-1.5c0.4-4.3,3.8-8,6.8-11.1c3.4-4.4,11.5-4,16.3-6.7c7,4.9,20.7,6.9,23.5,3.3
		c10.2-8.7-8.7-14.5-8.4-22.8c-0.3-5.5-11.2-20-7.5-21.9c6.8-8.3,8.9-19.6,15.4-28.3L358.1,321.2z M389.9,359
		c-12.5,0-22.6,7.8-22.6,17.3c0,9.6,10.1,17.3,22.6,17.3s22.6-7.8,22.6-17.3C412.4,366.7,402.3,359,389.9,359z"/>
</g>
<g id="Lineas">
	<path class="st31" d="M407.2,279.3c0,0-4,6.1-14,4.7s-13.3-6.8-15.4-11.7c-2.1-4.9-2.1-13.3,2.4-18c4.5-4.7,8.4-4.9,11.6-4.9
		c3.1,0,5.9,0.7,6.6,1c0.7,0.3,1.6,1.4,1.6,1.4"/>
	<path class="st31" d="M383.6,266.8c0,0,2.3-5.2,9.3-4.8c7,0.3,7.3,2.4,7.3,2.4"/>
	<path class="st31" d="M391.9,272.9c0,0-3.2-1.9-2.5-5.2c0.7-3.3,2.5-4.5,2.5-4.5"/>
	<path class="st31" d="M485.1,639.9c0,0-12.8-3.5-22.8,0.7c-10,4.2-17.3,13.8-17.3,13.8l-8.2-3c0,0-2.1-2.6,0-6.1
		c2.1-3.5,9.4-14,19.6-16.2c10.1-2.3,22.3,0,22.3,0"/>
	<path class="st31" d="M418.4,643l6.6,2.8c0,0,5.2-16.4,16.8-21.8c11.5-5.4,13.2-4.5,19.2-4.5s8.1,0.5,8.1,0.5"/>
	<path class="st32" d="M428.2,553.3l9.4-8.7c0,0,1.4-0.7,2.8,2.6s10.1,23.1,10.1,23.1s2.1,3.5,4.5,0.9c2.4-2.6,8-8.7,8-8.7
		s2.8,6.6,5.8,7.3c3,0.7,4.5,0.7,4.5,0.7"/>
	<path class="st31" d="M477.1,468.3c0,0-6.3,5.8-2.1,21.1c4.2,15.4,5.4,19.6,6.6,21.8c1.2,2.3-0.9,4.9-3.1,8
		c-2.3,3.1-11.9,16.1-14.2,27.1s-1.2,15.9-1.2,15.9"/>
	<path class="st31" d="M469.9,458.6c0,0,5.9,3.1,8.7,11.2c2.8,8,5.4,12.4,11.7,16.6c6.3,4.2,10.8,6.3,10.8,6.3"/>
	<path class="st31" d="M511.3,444.8c0,0-18,9.4-14.5,27.4c3.5,18,10.1,34.6,11.9,37.9c1.7,3.3,2.6,5.2,0.3,10.1s-9.6,16.4-10.5,27.6
		c-0.9,11.2,0.7,21.8,0.7,21.8"/>
	<path class="st31" d="M508.2,511.5c0,0-6.3,7.9-13.5,20.4s-11.4,25-11.4,25"/>
	<path class="st31" d="M521.5,569.7c0,0-3.1-15.7,1-27.3c4.2-11.5,6.8-16.2,12.8-20.3c5.9-4,10.5-7.3,10.8-13.6
		c0.3-6.3-2.8-10.3-4.4-12.8c-1.6-2.4-0.3-9.6,0.5-10.7"/>
	<path class="st31" d="M542.1,518.5c0,0,7.2-0.3,11.2-2.1s3.1-1,3.1-1s-1.4,14.3,1.7,24.5c3.1,10.1,12.3,20.1,12.3,20.1"/>
	<path class="st31" d="M564.6,509.8c0,0-1.9,1.9-4.2,3.3c-2.3,1.4-4,2.3-4,2.3"/>
	<path class="st31" d="M407.1,470.6c0,0,6.3,0.7,16.8-2.3c10.5-3,13.1-3.5,13.1-3.5s12.8,1.6,21-0.9c8.2-2.4,9.2-4.9,14.6-7.7
		s4.1-7.2,4.1-7.7s-2.6-1.2-2.6-1.2s5.1-2.3,6.3-8c1.2-5.8-3.5-7.9-7.8-6.5c-4.3,1.4-5.5,3.3-8.6,4.5c-3.1,1.2-5.9,1.4-5.9,1.4
		s5.9-1.2,10.3-8.6c4.4-7.3,1.2-9.6-2.3-10.8c-3.5-1.2-7.5,1.2-10.7,4c-3.1,2.8-5.8,4.5-8.9,5.1c-3.1,0.5-7-0.3-7-0.3
		s6.3-1.2,6.3-7.3c0-6.1-2.4-10.8-8.2-9.3c-5.8,1.6-6.5,6.6-8.7,10s-7.3,9.4-7.3,9.4s-5.9-10-19.7-7.9c-13.8,2.1-22.2,8.3-25.7,17.9
		s-3.5,24.2-3.5,24.2"/>
	<path class="st31" d="M401.1,470.1c0,0-3.3-9.8-0.9-20.1c2.4-10.3,5.2-14.5,10.3-15.5c5.1-1,10-2.8,10-2.8"/>
	<path class="st31" d="M337.8,436.8c0,0,0.9-3.5,4.4-8.1s8.6-7,8.6-7"/>
	<path class="st33" d="M348.5,413.8c0,0-0.3,8.7,7.5,11.5c7.9,2.8,11.8,2.6,11.8,2.6s-2.8,2.5-5.2,11.4c-2.4,8.9-1.9,20.8-1.9,20.8"
		/>
	<path class="st34" d="M385,429.2c0,0-2.4-2.3-4.1-2.4c-1.7-0.2-5.2,0-5.2,0"/>
	<path class="st31" d="M367.6,413.8l1.4,13.5c0,0,1.2,4.4,3.5,1.9c2.3-2.5,3.7-4.4,5.6-7.5c1.9-3.1,2.8-7.9,2.8-7.9
		S372.8,412.3,367.6,413.8z"/>
	<path class="st31" d="M459.7,453.4c0,0,2.9-0.7,6.2-2.3c3.3-1.6,7.8-3.7,7.8-3.7"/>
	<path class="st31" d="M332.5,415.6c0,0,8.7-3.1,31.6-2.4c22.9,0.7,48.9,6.6,48.9,6.6"/>
	<path class="st31" d="M306.2,421.6c0,0-0.5,4.3,1,6.4c1.6,2.1,3,3,3,3s2.4-2.4,3.1-6.1c0.7-3.7,0-5.9,0-5.9"/>
	<path class="st31" d="M354.7,478.5c0,0-5-3.2-5.5-7.8c-0.5-4.6-0.7-5.3-0.7-5.3"/>
	<path class="st31" d="M341.5,480c0,0-1.7-2.2-2.9-5.3s-0.8-6.3-0.8-6.3"/>
	<path class="st31" d="M380.8,482.5c0,0-1-1.9-2.4-5.4s0-7,0-7"/>
	<path class="st31" d="M390.6,483.9c0,0-1.9-3.7-2.4-6.5s0-6.7,0-6.7"/>
	<path class="st31" d="M473.2,301.9c0,0,3.8-1.2,6.9-0.2c6.6,2.1,7.2,8.7,7.2,8.7s6.1,3.3,5.9,10c-0.2,6.6-2.1,7.5-6.1,10.5
		c-4,3-9.4-0.7-8.9,0c0.5,0.7-0.7,6.1-7.5,8.9s-12.6,0-12.6,0s-3.7,5.6-9.1,5.4c-5.4-0.2-7.2-1.2-8.9-1.9c-1.7-0.7-3.7-3.5-3.7-3.5
		s-4.9,5.2-9.6,5.4c-4.7,0.2-8.6-1.8-8.6-1.8s-0.6-6.6-0.1-11.1c0.5-4.5,1.7-9,1.7-9"/>
	<path class="st31" d="M447.4,367.3l-2.4,10.9c0,0,1.6,1.6,3.3,4.7c1.7,3.1,1.6,5.2,1.6,5.2l4.4-2.4c0,0,0.7,2.1,0,7.3
		c-0.7,5.2-4.2,8.7-4.2,8.7s-0.3,5.1-0.5,9.5c-0.2,4.4-4.2,5.2-4.2,5.2s1.1,3.4,0.2,5.8c-1.2,3.1-4.7,6.1-4.7,6.1s5.8,0,7.5-0.4
		c1.7-0.4,4.7-4.2,4.7-4.2s1.2-3.5,2.6-4s1.8-6.7,1.8-6.7s0.3-0.9,1.2-1.8c0.9-0.8,0.7-5.5,0.7-5.5s0.5-1.7,0-12.4
		c-0.5-10.7-4.4-20.1-5.9-22.2c-1.6-2.1-6.1-4.7-6.1-4.7s0.7-0.9,0-3c-0.7-2.1-1.2-4.2-1.2-4.2s-0.5,1.4-1,2.6s-2.3,1.6-2.3,1.6
		s-4-3-6.5-3c-2.4,0-4.2-0.9-4.2-0.9s-0.7-2.3-3.7-2.3s-3.7,2.1-3.7,2.1l-4.5,1c0,0-1.2-1.9-2.2-7.7c-0.9-5.8,0-8.6,0-8.6"/>
	<path class="st31" d="M421.6,364.1c0,0,3.3-1,6.6,0c3.3,1,8.7,4.7,8.7,4.7s0-0.5,2.6-1.7c2.6-1.2,4.4-3.4,4.4-3.4"/>
	<path class="st31" d="M436.5,369c0,0-4.3,2.6-10,0.7s-5.9-8.4-5.9-8.4"/>
	<path class="st31" d="M444.7,378.8c0,0-2.2,3.6-4,6.6c-1.7,3-4.5,5.8-4.5,5.8s2.9,0.2,5.7-0.3c2.8-0.5,7.5-2.2,7.5-2.2"/>
	<path class="st31" d="M440.2,409.8c0,0,0.5,0.2,3.7-1.7c3.1-1.9,6.1-6.3,6.1-6.3"/>
	<path class="st31" d="M436.4,339.8c0,0,1.3-2.3,1.6-5.1c0.3-2.8-0.7-5.7-0.7-5.7"/>
	<path class="st31" d="M458.1,339.8c0,0,1.2-2.2,1.2-6.4c0-3.8-3.3-7.4-3.3-7.4"/>
	<path class="st31" d="M478.2,330.9c0,0,0.7-3.3-0.9-6.1c-1.6-2.8-5.4-5.2-5.4-5.2"/>
	<path class="st31" d="M475.5,313.9c0,0,1.7-1.8,6.1-2.9c4.8-1.2,6.9,0.2,6.9,0.2"/>
	<path class="st33" d="M491.1,327.6c0,0,21.8,7.1,38.4,14c16.6,6.9,34.6,15.5,50,32.2c15.4,16.8,5.1,34.2,2.6,38.3
		c-2.4,4-8.7,14-8.7,14s5.1,8.2,8,23.8c3,15.5,1.2,41.8,1.2,41.8l16.9,27.8c0,0,4,4.7,3.1,5.2c-0.9,0.5-1,0.2-7.3,0
		c-6.3-0.2-15.4-4.5-15.4-4.5s-0.7,20.3,11.4,20.3s14.8-12.6,17.3-21.5c2.4-8.9,2.4-23.6,1-38.1c-1.4-14.5-9.8-33.9-10-53.1
		c-0.2-19.2,1-27.6,10.1-36c9.1-8.4,14-3.8,15.2,2.6c1.2,6.5-3.7,8.7-4.2,22.9c-0.5,14.2,1,31.8,6.1,48.7c5.1,16.9,7,30.2,4,49.4
		c-3,19.2-10.1,30.6-14.7,37.4c-4.6,6.9-12.4,11.4-25.7,12.6c-13.3,1.2-21.7-6.6-21.7-6.6s2.8,9.6,3.5,19.2s0.2,26.4,0.2,26.4
		s6.3,2.1,17.1,9.3c10.8,7.2,12.8,13.3,16.9,19.4c4.2,6.2,2.8,11.5,2.8,11.5s-1.6,0.7-7,2.4c-5.4,1.7-11.4,3.8-33,4.5
		s-34.4-3-40.5-4.2c-6.1-1.2-5.2-4.4-5.2-4.4s-0.3-14.7,0-18.7c0.3-4,2.4-7,2.4-7s-0.2-6.1-0.7-22.7s-3.8-23.8-3.8-23.8
		s-1.6,4-2.8,5.2s-3.5,5.4-10.1,3.5c-6.6-1.9-9.4-9.1-9.4-9.1s-1.6,2.1-3.5,3.1c-1.9,1-3.3-2.6-5.1-4.7c-1.7-2.1-7.3-11.9-7.3-11.9
		s-0.9,7.7-3.7,11s-5.1,2.3-5.1,2.3s-0.7,11.5-1.9,21.8c-1.2,10.3-3.7,28.1-3.7,28.1s6.8,5.9,11.9,11.4c5.1,5.4,6.8,10.7,10.3,17.3
		c3.5,6.6,1.7,16.1,1.7,16.1s-16.6,6.5-43,3.5c-26.4-3-34.9-11.7-34.9-11.7s0.9-3.3,0.2-8.9c-0.7-5.6,4.2-6.8,4.2-6.8s4-30.2,5.1-50
		c1-19.7,3.7-37.7,3.7-37.7s-15,12.1-16.9,13.8s-2.6-1.7-2.6-1.7s-3-19-3-21.3s-0.3-4.7-2.4-4.5c-2.1,0.2-6.6,5.9-14.3,10.7
		c-7.7,4.7-13.5,7.7-13.5,7.7s17.6-35.5,22.5-51c4.9-15.5,8-36.5,8-36.5l-4.9-0.2c0,0,0,0.9-0.2,2.6c-0.2,1.7-0.5,6.8-3.7,9.8
		c-3.1,3-11.2,4.4-19,0c-7.9-4.4-5.8-17.3-5.8-17.3s-3.5-0.2-6.3-1.6c-2.8-1.4-5.4-3.5-5.4-3.5s0,4.5,0,9.3
		c0,4.7-4.4,10.1-11.5,10.7c-7.2,0.5-11.4,0.2-15-4.5c-3.7-4.7-2.3-12.4,0-23.6c2.3-11.2,4.4-13.6,4.4-13.6s-0.5-1.7-3.5-5.4
		c-3-3.7-2.6-5.6-3.3-10.1c-0.7-4.5,0.7-7.2,0.7-7.2s0.9-0.3-2.4,0.2s-7.3,1.4-14.7,2.8c-7.3,1.4-9.6,2.1-9.6,2.1s-8.4,2.3-12.4-3.8
		c-4-6.1,3-14.2,8.7-20.6s14.7-11.9,14.7-11.9s-2.9-3.4-4-6.1c-5.4-13,6.1-20.2,12.9-20.8c0,0,0-4.9,3.7-9.3
		c3.7-4.4,9.3-3.1,9.3-3.1s1.9-5.6,3.3-9.1c1.4-3.5,4.4-9.1,11-18.9c6.6-9.8,12.5-10.5,12.5-10.5s0.2,4.9,0.1,12.1
		c-0.2,7.2-0.3,15.5,6.1,19.9s11.4,0,24.5-11.9s19.6-13.5,19.6-13.5s2.3-1,5.1-1s2.6,3,1.4,5.1s-2.3,6.1-2.3,6.1s1.9-1.2,6.8-0.9
		c4.9,0.3,8.6,5.1,9.6,5.8c1,0.7,1,0.7,1,0.7s2.3-4.9,9.1-6.6s9.8,3.8,9.8,3.8s2.5-5.6,6.2-7s9.2-0.2,9.2-0.2l2-3
		c2-2,2.3-2.5,2.3-2.5c-0.4-0.7-2-2.4-2.5-4c-1.2-3.7-1-16.9-1-16.9s3.5-0.7,11.2-6.1s4.2-11.9,4.2-11.9s16.4-2.9,35.3-10.2
		c18.9-7.3,22.9-12.5,26.2-17.1s4.9-12.8-2.4-16.9c-7.3-4.2-9.6-7.2-14.3-10c-4.7-2.8-6.8-9.6-6.8-9.6"/>
	<line class="st31" x1="580" y1="520.1" x2="582.4" y2="488.7"/>
	<path class="st31" d="M522.2,548.4c0,0,3.5,2.4,8.7,7.9c5.2,5.4,11.2,11.9,11.2,11.9s2.3,3.8,4-2.8s5.4-15.9,6.1-18.5
		c0.7-2.6,0-5.8,0-5.8l6.5,3.4"/>
	<path class="st31" d="M525,633.8c0,0,3.8,1.4,7.7,1.9c3.8,0.5,11.4,3,11.2,1.6c-0.2-1.4,1.9-14,10.5-22.9
		c8.6-8.9,18.3-10.1,18.3-10.1"/>
	<path class="st31" d="M583.9,609.9c0,0-10.7,3-16.7,10.2c-5.9,7.3-9.3,17.6-9.3,17.6s4.9,1.1,8.9,1.1s8.2,0,8.2,0s2.6-9.1,8.8-12.6
		s6.9-4.5,10.4-5.3c3.5-0.8,4.3,0,4.3,0"/>
	<path class="st35" d="M463.2,177.5c4.5-14.7,18.2-25.3,34.3-25.3c16.3,0,29.4,10.8,34.1,25.6c0.5,1.6,0.9,3.3,1.2,5
		c0.3,1.7,0.5,3.5,0.6,5.3c0.1,2.5-0.2,5.1-0.9,7.7c-0.5,2.2-1.3,4.3-2.2,6.4c-1.4,3.3-3.1,6.3-4.7,8.8c-3.3,5-6.4,8-6.6,6.6
		c-1.7-11.7-16.4-11.5-21.5-10.5c-9.4,1.7-20.5,5.9-25.2,5.4c-0.8-0.1,0.1-2.8,0.2-3.4"/>
	<path class="st31" d="M574.3,424.6l-8.3,9.7c0,0-1.7,12.9-14.2,22.4c-12.4,9.4-13.5,9.1-17.3,7.9c-3.8-1.2-4.5-4.2-4.5-4.2
		s-4.9,3.5-8.6,0c-3.7-3.5-2.1-7.3,1.9-11s6.3-5.6,7.5-8.3c1.2-2.7,0.3-2.3,0.3-2.3s-11.2,6.6-14.3,6.1c-3.1-0.5-5.1-0.1-6.8-3.8
		c-1.7-3.7,0.3-6.9,4.2-9.8c3.8-3,9.1-5.1,10.7-8c1.6-3,3.5-7.3-1.4-8.9c-4.9-1.6-10.3-3.1-9.1-8.4c1.2-5.2,6.3-7,12.4-5.1
		s8.9,5.2,10.5,5.9c1.6,0.7,1.8,0,3.4-2.8c1.6-2.8,4.5-6.5,5.3-9.1s1.5-2.2,1.4-3.4c-0.2-1.3-10.7-6.9-18.5-11.6
		c-7.9-4.7-16.4-8.9-32.7-12.2c-16.2-3.3-46.3,0-46.3,0"/>
	<path class="st31" d="M465.6,365.9c0,0,15-3,24.3-4.6c9.3-1.6,18-1,18-1"/>
	<path class="st31" d="M498.8,349.6c0,0,8,9.6,11.5,13.4c3.5,3.8,6.4,10.5,6.4,10.5"/>
	<path class="st31" d="M431.4,274.6c0,0,14.2,4.8,30.8,2.6c16.7-2.3,25.3-2.6,25.3-2.6"/>
	<path class="st31" d="M428.4,279.4c0,0,0.3-2.7,2.8-5.7c2.1-2.3,4.6-2.8,4.6-2.8l0,0"/>
	<path class="st31" d="M466.6,225.3c4.2-6.3,5.6-11.8,5.6-11.8s10.5-1.2,21.3-5.1c10.8-4,22.7-2.8,25.6,9.3s-9.8,16.1-13.2,17.7
		c-3.4,1.6-12.2,2.9-12.2,2.9"/>
	<path class="st31" d="M463.8,177.6c0,0,8.4,10.8,8.9,20.6c0.5,9.8-0.9,16.1-0.9,16.1"/>
	<circle class="st36" cx="431.3" cy="204.6" r="5.6"/>
	<circle class="st36" cx="504" cy="186.9" r="5.6"/>
	<path class="st37" d="M385.7,210.2c0,0,2.8,0.1,5.7,0.7s7.3,0,7.3,0"/>
	<path class="st37" d="M391.2,177.6c0,0,1.8,0.7,6.5,3.7c4.7,3,5.5,1.8,5.5,1.8"/>
	<path class="st37" d="M418,156c0,0,2.9,3.1,4.6,6.3s2,5.5,2,5.5"/>
	<path class="st37" d="M448.5,167.8c0,0,3.4-1.7,4.1-5.9c0.7-4.1,0-9.5,0-9.5"/>
	<path class="st37" d="M480.1,157.6c0,0,0.2-3.1-0.8-6.3c-1.2-4-4.5-6.3-4.5-6.3"/>
	<path class="st37" d="M506.1,153.5c0,0-0.7-2.4,0-7.3c0.7-4.9-0.3-6.6-0.3-6.6"/>
	<path class="st37" d="M524.8,165.9c0,0,3.3-0.7,5.4-5.8c2.1-5.1,1.7-6.5,1.7-6.5"/>
	<path class="st37" d="M532,180.5c0,0,3.1-0.7,7.3-2.8c4.2-2.1,5.2-5.6,5.2-5.6"/>
	<path class="st31" d="M311.3,370.7c1.1,11.1,4.4,12.5,10.5,15.9c4,2.2,8.6,2.3,11.3,2.1c0.5,0,1.8-0.5,2.1-1.8
		c1.4-5.7,6-6.7,10.4-7.5l4.5,0.4l-0.3-4.5"/>
	<path class="st31" d="M325.6,357.4c0,0,13.3-1.8,18.7,4.1c5,5.6,5.7,11.3,5.5,14.8"/>
	<path class="st31" d="M334.5,388.8c0,0,3.9,8.3,14.1,7.7s11.4-3.8,11.7-6.4s-1.8-6.3-5-8.3s-5.2-2-5.2-2"/>
	<ellipse class="st38" cx="389.2" cy="376.6" rx="22.6" ry="17.3"/>
	<circle class="st35" cx="435.5" cy="203.4" r="38"/>
	<path class="st31" d="M401.1,311.5c0,0-8.4-2.1-13.5,4.4c-5.1,6.5,0.2,15.7,1.1,16.5c0.9,0.7,13.5-11.3,13.5-11.3l-0.6-36.2
		l0.7,17.8c0,0-15,5.9-20.3,8.2c-5.2,2.3-6.6-7.3-6.6-7.3s-3.7-15-4.9-19c-1.2-4-4.2-3.4-4.2-3.4h-25c0,0-6.1-0.3-11.4-0.6
		c-5.2-0.2-3.7-5.6-3.7-5.6s6.3-31.6,7.1-36.4c0.8-4.8-1.1-5.2-1.1-5.2s-27.2-17.1-35.1-21.7c-7.9-4.6-3.8-10.4-3.8-10.4l26.6-33.6
		c0,0-12.2-23.3-17-33.9c-3.1-6.8,0-7.9,0-7.9l44.3-16.6c0,0,1.2-9.8,2.3-20.5c0.8-7.3,4-15.8,6-20.5c0.9-2.2,3.2-3.5,5.6-3.2
		c2.9,0.4,7.3,1.2,12,2.7c8.7,2.8,31.8,10.5,31.8,10.5s21-25.2,26.5-32.1c5.6-7,9.6-3.6,9.6-3.6s3.7,3.6,9.7,9.2S473.6,76,473.6,76
		s28.7-9.1,36.3-11.5c7.7-2.4,9.1,8.7,9.1,8.7l4.2,37l32,17.3c0.9,0.5,1.3,1.6,0.8,2.5c-1.8,3.8-6.5,13.4-10.4,20
		c-4.9,8.4-16.4,21.7-15.5,23.6c2.6,5.4,5.7,15.9,0.5,28c-6.4,15.1-11.6,15.9-11.6,15.9"/>
	<path class="st31" d="M402.2,321"/>
	<circle cx="431.3" cy="204.6" r="5.4"/>
	<circle cx="503.5" cy="186.9" r="5.4"/>
	<line class="st35" x1="530.9" y1="459.6" x2="546.3" y2="448.9"/>
</g>
</svg>
