<?xml version="1.0" encoding="UTF-8" standalone="no"?>
<!-- Created with Inkscape (http://www.inkscape.org/) -->

<svg
   xmlns:dc="http://purl.org/dc/elements/1.1/"
   xmlns:cc="http://creativecommons.org/ns#"
   xmlns:rdf="http://www.w3.org/1999/02/22-rdf-syntax-ns#"
   xmlns:svg="http://www.w3.org/2000/svg"
   xmlns="http://www.w3.org/2000/svg"
   xmlns:sodipodi="http://sodipodi.sourceforge.net/DTD/sodipodi-0.dtd"
   xmlns:inkscape="http://www.inkscape.org/namespaces/inkscape"
   width="400"
   height="400"
   id="svg3939"
   version="1.1"
   inkscape:version="0.48.1 "
   sodipodi:docname="pablo.svg">
  <defs
     id="defs3941" />
  <sodipodi:namedview
     id="base"
     pagecolor="#ffffff"
     bordercolor="#666666"
     borderopacity="1.0"
     inkscape:pageopacity="0.0"
     inkscape:pageshadow="2"
     inkscape:zoom="0.36636474"
     inkscape:cx="452.54834"
     inkscape:cy="468.71078"
     inkscape:document-units="px"
     inkscape:current-layer="layer1"
     showgrid="false"
     inkscape:window-width="1366"
     inkscape:window-height="716"
     inkscape:window-x="-8"
     inkscape:window-y="-8"
     inkscape:window-maximized="1" />
  <metadata
     id="metadata3944">
    <rdf:RDF>
      <cc:Work
         rdf:about="">
        <dc:format>image/svg+xml</dc:format>
        <dc:type
           rdf:resource="http://purl.org/dc/dcmitype/StillImage" />
        <dc:title></dc:title>
      </cc:Work>
    </rdf:RDF>
  </metadata>
  <g
     inkscape:label="Layer 1"
     inkscape:groupmode="layer"
     id="layer1"
     transform="translate(0,-652.36178)">
    <g
       id="ojos_gato"
       transform="matrix(0.30808525,0,0,0.30808525,-8.1750596,644.26296)">
      <path
         id="path3858_1_"
         cx="62.827042"
         cy="458.31607"
         end="6.278847"
         open="true"
         rx="28.701563"
         ry="19.096708"
         start="0"
         type="arc"
         class="st46"
         d="m 522.7,687.8 c 0,18.2 -19.4,32.9 -43.3,32.9 -23.9,0 -43.3,-14.7 -43.3,-32.9 0,-18.2 19.4,-32.9 43.3,-32.9 23.8,0 43.2,14.7 43.3,32.8"
         inkscape:connector-curvature="0"
         style="fill:#d1cf78" />
      <path
         id="path3860_1_"
         cx="62.827042"
         cy="458.31607"
         end="6.278847"
         open="true"
         rx="28.701563"
         ry="19.096708"
         start="0"
         type="arc"
         class="st46"
         d="m 403.4,680.4 c 0,15.8 -16.8,28.6 -37.6,28.6 -20.8,0 -37.6,-12.8 -37.6,-28.6 0,-15.8 16.8,-28.6 37.6,-28.6 20.7,0 37.5,12.7 37.6,28.5"
         inkscape:connector-curvature="0"
         style="fill:#d1cf78" />
      <path
         id="path3884_1_"
         connector-curvature="0"
         class="st24"
         d="m 354.8,693.8 c 0,0 -5.9,-1.9 -5.9,-13.9 0,-12 8.9,-16.3 8.9,-16.3 0,0 -7.9,15 -3,30.2 z"
         inkscape:connector-curvature="0"
         style="fill:#020203" />
      <path
         id="path3860-3_1_"
         cx="62.827042"
         cy="458.31607"
         end="6.278847"
         open="true"
         rx="28.701563"
         ry="19.096708"
         start="0"
         type="arc"
         class="st47"
         d="m 422.1,709.2 c 0,9 -10.3,16.3 -23,16.3 -12.7,0 -23,-7.3 -23,-16.3 0,-9 10.3,-16.3 23,-16.3 12.7,0 22.9,7.3 23,16.3"
         inkscape:connector-curvature="0"
         style="fill:#e59ec6" />
      <path
         id="path3991_1_"
         connector-curvature="0"
         nodetypes="csscccc"
         class="st45"
         d="m 386,720.9 c 0,0 -7.2,-2.7 -7.9,-9.4 -0.5,-5 0.3,-6.9 5.6,-11.2 4.9,-4 9.3,-3.9 9.3,-3.9 0,0 -8.9,6.2 -8.7,13.8 1.2,6.9 3.3,10.1 9,13.4 l -7.3,-2.7 z"
         inkscape:connector-curvature="0"
         style="fill:#ac7198" />
      <path
         id="path3981_1_"
         connector-curvature="0"
         nodetypes="csscssc"
         class="st44"
         d="m 399.5,724.2 c 1.4,-1.4 14.1,-7 13.7,-12.5 -0.4,-5.5 -0.5,-5.6 -3,-9.6 -1.4,-2.2 -11.2,-6.7 -11.2,-6.7 0,0 15.5,0.8 19.5,10.6 2.6,6.4 -2.1,11.9 -5.4,14 -3.3,2.1 -13.6,4.2 -13.6,4.2 l 0,0 z"
         inkscape:connector-curvature="0"
         style="fill:#f2c9e0" />
      <path
         id="path3884-2_1_"
         connector-curvature="0"
         class="st24"
         d="m 481.6,701.1 c 0,0 5.2,-1.7 5.2,-13 0,-11.3 -8,-15.4 -8,-15.4 0,0 7.2,14.2 2.8,28.4 z"
         inkscape:connector-curvature="0"
         style="fill:#020203" />
    </g>
    <g
       id="Lisa"
       transform="matrix(0.30808525,0,0,0.30808525,-8.1750596,644.26296)">
      <path
         id="path3840_1_"
         connector-curvature="0"
         class="st4"
         d="m 505.9,577.5 25.8,-12.5 9.8,-1.7 v 20.4 l 5.4,-0.7 c 4.4,-0.5 8.8,0.5 12.5,2.9 l 11.8,8.8 4.2,-4.9 c 2.2,-3 4.5,-5.3 8.2,-5.7 l 9.7,-1.8 c 3.2,-0.4 6,1 8.9,2.4 l 7,3.6 7.3,-8.5 c 1.4,-1.6 3.2,-2.7 5.2,-3.2 l 4.7,-1.2 7.3,0.6 c 2.2,-0.3 4.3,-1.2 5.9,-2.7 l 5,-6.5 c 0.1,-0.1 0.1,-0.3 0.1,-0.5 l -4.3,-14.1 c -0.9,-3 -1.3,-6.1 -1.1,-9.2 l 1.1,-17.8 c 0,0 11.2,-4 21.7,-11.7 13.2,-9.7 7.2,-22.3 7.2,-22.3 0,0 58.6,-9.3 101.3,-36.8 34.6,-28.9 19.6,-43.4 11.6,-49 -7.9,-5.6 -14.3,-9.2 -23,-15.5 -11.2,-8.3 -18.5,-18.8 -18.5,-18.8 l -9.1,9.9 -5.6,-9.1 -4.2,-5.3 -10.1,-4.1 c -5.5,-2.2 -11.6,-2.8 -17.5,-1.6 l -19,3.9 -36,8.1 -9.5,20.6 c -7,10.7 -19.9,22 -31.6,27.1 l -20.5,5.9 -24,-2.2 C 549.9,424 540.7,423 537.9,420.5 L 514,403.3 c -1.2,-1 -10.5,-18.7 -11.2,-20 -1.9,-3.6 -5.2,-11.6 -7.4,-27.4 -1.6,-11.6 2.1,-23.6 7.2,-34 l 6.6,-10.3 c 4.3,-8.7 10.7,-12.8 19.1,-17.9 l 13,-7.8 30,-5.3 c 22.4,-4.1 51.4,22.9 51.9,20.8 1.1,-4.4 4.9,-8.5 5.3,-12.4 0.5,-5.1 18.9,-23.2 30.7,-27.6 5.6,-2.1 7.6,-4.6 34,-6.5 31.5,-2.3 56.3,38.4 56.3,38.4 0,0 31,-42 42.2,-62.6 10.1,-16.8 9.7,-22.5 9.7,-22.5 0,0 -22.8,-13.3 -34.7,-18.3 -11.9,-5.1 -29.4,-15.4 -29.4,-15.4 l -7.2,-66.2 c -0.5,-4.9 -4.2,-19.3 -8.9,-21 -8,-2.8 -20.8,4.2 -34.2,6.6 -21.3,6.2 -44.9,13.9 -44.9,13.9 0,0 -37.9,-41.2 -48.5,-51.3 C 586.7,50 581,45 576.7,42.7 c -2.5,-1.3 -6.1,-0.5 -8,1.6 -6.3,7.1 -23,25.7 -32.3,36.5 -11.9,13.5 -25.4,31.4 -25.4,31.4 0,0 -30,-11.7 -54.9,-19 -24.7,-7.4 -38.2,-7.5 -38.2,-7.5 0,0 -13.5,30.8 -15.1,49.9 -1.6,19.1 -3.5,35.8 -3.5,35.8 0,0 -36.2,14 -53.7,20.7 -12.8,4.9 -27.5,8.8 -33.5,11 -1.9,0.7 -2.3,6 -1.5,7.9 3.9,9.5 16.4,33.7 22,44.8 6.7,13.5 12.3,25.5 12.3,25.5 0,0 -24.8,38 -35,52.1 -10.1,14.1 -13,18 -13,18 0,0 -9.6,11.3 7.9,17.5 17.5,6.2 69.2,42.2 69.2,42.2 0,0 -6.1,34.9 -9,50.1 -2.9,15.2 -5.1,36 -5.1,36 0,0 48.5,9.1 61,8.5 12.4,-0.5 21.9,0.5 21.9,0.5 0,0 5.6,31 10.6,39.4 5.1,8.5 1.6,18 19.1,13.5 17.5,-4.5 32.1,-14.5 32.1,-14.5 m 198.5,232.7"
         inkscape:connector-curvature="0"
         style="fill:#ffd623" />
      <path
         class="st48"
         d="m 733.4,1041.2 c 0,0 5.4,27.6 8.1,51.2 2.7,23.6 4,58.4 4,58.4 0,0 -5.3,7.6 -5.7,17.7 -0.3,10.1 0,15.5 0,15.5 0,0 9.8,4 20.5,5.4 10.7,1.4 17.5,0 17.5,0 0,0 3.4,-20.9 21.6,-40.4 18.2,-19.5 35,-21.6 35,-21.6 0,0 2.7,-20.5 0,-48 -2.7,-27.5 -4.7,-38.2 -4.7,-38.2 0,0 -8.8,0.7 -14.1,-13.5 -5.4,-14.1 -5.4,-14.1 -5.4,-14.1 l -16.7,-9.1 c 0,0 -2.6,22.3 -6.6,33.7 -4,11.5 -8.3,21.2 -8.3,21.2 0,0 -18.2,-18.2 -26.9,-27.6 -8.8,-9.4 -18.2,-13.5 -18.2,-13.5 v 22.9 z"
         id="path3494"
         inkscape:connector-curvature="0"
         style="fill:#ffd523" />
      <path
         class="st48"
         d="m 643.3,1061.7 c 0,0 -2.7,26.9 -4,49.2 -1.3,22.2 -6.7,43.8 -6.7,43.8 0,0 -31,-3.7 -51.9,9.8 -20.9,13.5 -33,42.1 -33,42.1 l -12.1,-6.7 c 0,0 9.4,-72.7 13.5,-108.4 4.1,-35.7 4.7,-63.3 4.7,-63.3 l 20.2,-16.2 23.6,52.5 c 0,0 4,5.4 8.8,0 4.7,-5.4 13.9,-18.2 13.9,-18.2 0,0 2.8,12.1 23,15.4 z"
         id="path3496"
         inkscape:connector-curvature="0"
         style="fill:#ffd523" />
      <path
         class="st48"
         d="m 806.2,1193.4 h 32.3 c 0,0 6.7,-12.1 20.9,-23.6 14.1,-11.5 23.6,-11.5 23.6,-11.5 0,0 -7.4,-9.4 -13.5,-12.1 -6.1,-2.7 -13.5,-6.7 -13.5,-6.7 0,0 -43.1,5.4 -49.8,53.9 z"
         id="path3498"
         inkscape:connector-curvature="0"
         style="fill:#ffd523" />
      <path
         class="st48"
         d="m 651.9,1176.6 c 0,0 9.4,8.6 13.5,13.4 4,4.8 4,4.8 4,4.8 0,0 -34.4,-4.7 -57.9,6.7 -23.6,11.5 -25.6,21.6 -25.6,21.6 l -13.5,-5.4 c 0,0 -2.7,-5.4 0,-12.1 2.7,-6.7 7.9,-25.3 36.2,-31.3 28.3,-6 43.3,2.3 43.3,2.3 z"
         id="path3500"
         inkscape:connector-curvature="0"
         style="fill:#ffd523" />
      <path
         class="st48"
         d="m 503.8,868.9 c 0,0 23.5,-0.1 41,-2.2 17.5,-2.1 29.6,-8.8 29.6,-8.8 0,0 26.3,4 41.1,0 14.8,-4 17.1,-9.8 27.1,-17.2 13.7,-10.1 0,-15.4 0,-15.4 0,0 9.3,-4.4 12.6,-13.9 3.4,-9.4 -1.4,-13.8 -10.8,-15.4 -9.4,-1.6 -15.3,10.7 -23.1,10.7 -7.8,0 -7.8,0 -7.8,0 0,0 12.7,-9.3 18.2,-16.8 7.5,-10.2 1.1,-25.9 -13.4,-19.2 -14.6,6.7 -18.5,17.5 -27.7,17.8 -13.9,0.6 -13.6,-1.5 -13.6,-1.5 0,0 10,-5 10,-12.4 0,-7.4 -0.9,-24.4 -16.4,-18.3 -7,2.8 -11.8,21 -29.4,35.9 -9.2,7.8 -23.4,7.3 -23.4,7.3 0,0 -26.8,18.9 -14,69.4 z"
         id="path3502"
         inkscape:connector-curvature="0"
         style="fill:#ffd523" />
      <path
         class="st48"
         d="m 446.6,858.7 c 0,0 -4.8,0.4 -10.1,-2.2 -5.3,-2.6 -10.5,-5.4 -10.5,-5.4 0,0 -1.4,-21.1 1.6,-35.1 3.6,-16.9 11.8,-29.4 11.8,-29.4 0,0 2,3.9 5.2,4.4 3.2,0.6 8.4,-6.7 8.4,-6.7 0,0 10.4,0 12.8,0.9 2.4,0.9 4.5,3.8 4.5,3.8 0,0 -13.8,9.5 -20,33.1 -6.1,23.5 -3.7,36.6 -3.7,36.6 z"
         id="path3504"
         inkscape:connector-curvature="0"
         style="fill:#ffd523" />
      <path
         class="st48"
         d="m 380.8,803.5 c 0,0 -5.6,-7.2 -9.1,-18.8 -3.5,-11.6 -1,-20.7 -1,-20.7 0,0 10.3,-1.8 17.5,-2.8 7.2,-0.9 12.7,-2 12.7,-2 0,0 -0.6,6.6 1.7,10.6 2.3,4.1 3.1,6.1 3.1,6.1 0,0 -17.1,9.9 -24.9,27.6 z"
         id="path3506"
         inkscape:connector-curvature="0"
         style="fill:#ffd523" />
      <path
         class="st48"
         d="m 785.6,716.4 c 0,0 -8.8,15 -11.5,19.7 -2.7,4.7 -1.7,12.8 -9.1,8.8 -7.4,-4 -21.1,-13.8 -30.6,-11.7 -9.4,2 -20.1,16.1 -6,22 14.1,5.9 23.8,7.1 13.4,19.8 -13.1,15.9 -29.6,21.6 -29.6,28.3 0,6.7 7,18.1 17.1,15.4 10.1,-2.7 28.1,-13 28.1,-13 l -19.5,23.6 c 0,0 -11.7,15 -2.3,19.8 9.4,4.7 17,-1.3 17,-1.3 0,0 2.1,10.5 13.6,8.6 11.5,-1.9 38.4,-20.1 43.8,-31.5 5.4,-11.5 11.3,-29 11.3,-29 0,0 28.4,-27.6 37.9,-56.6 0,0 19.5,-33 -24.9,-70.7 -35.6,-30.2 -75.4,-44.5 -100.4,-55.2 -24.9,-10.8 -56,-19.5 -56,-19.5 0,0 -8.6,7.7 -15.3,7.7 -6.7,0 -10.6,-2.1 -10.6,-2.1 0,0 -5.1,15.4 -15.9,18 -19.5,4.7 -22.9,-4.2 -22.9,-4.2 0,0 -7.9,13 -19.3,13.7 -11.5,0.7 -22.5,-9.5 -22.5,-9.5 0,0 -14.7,9 -20.9,9.3 -6.9,0.3 -15.3,-4.1 -15.3,-4.1 0,0 -0.5,11.8 0.1,17.9 0.6,6.1 4.3,14.2 4.3,14.2 l 8.9,-3.1 c 0,0 0.9,-1.1 6.3,-1.1 5.4,0 8.4,3.6 8.4,3.6 0,0 6.2,2.6 10.3,3.3 4.1,0.7 8.9,5 8.9,5 0,0 3.8,-5.3 5.8,-8 2,-2.7 0.9,-5.1 0.9,-5.1 l 3.6,18.3 5.3,2.5 c 0,0 13.8,-2 29.9,-3.4 16.2,-1.3 20.9,-4.1 20.9,-4.1 0,0 2.6,-2.3 27.6,-5 C 701.3,655 706,654 706,654 l 20.4,27.8 c 0.1,-0.3 30.2,10.7 59.2,34.6 z"
         id="path3508"
         inkscape:connector-curvature="0"
         style="fill:#ffd523" />
      <path
         class="st49"
         d="m 663.4,1033.8 20.2,30 10.1,-5.8 c 0,0 -7.4,-26.3 0,-53.9 7.4,-27.6 22.9,-51.7 22.9,-51.7 l -6.7,-11.6 c 0,0 -35,40.4 -46.5,93 z"
         id="path3510"
         inkscape:connector-curvature="0"
         style="fill:#d63c28" />
    </g>
    <g
       id="gato_1_"
       transform="matrix(0.30808525,0,0,0.30808525,-8.1750596,644.26296)">
      <path
         class="st50"
         d="m 540.9,664.5 c 0,0 7.3,-2 13.7,0 6.4,2 13.7,7.3 13.7,7.3 0,0 -4.7,4.4 -13.7,2.9 -9.1,-1.5 -13.7,-10.2 -13.7,-10.2 z"
         id="path3513"
         inkscape:connector-curvature="0"
         style="fill:#4e555f" />
      <path
         class="st50"
         d="m 587.1,692.6 c 0,0 3.5,5.1 5,8.9 1.5,3.8 3.1,9.1 3.1,9.1 0,0 -7.8,3.2 -12.5,5 -4.7,1.7 -13,1.4 -13,1.4 l 17.4,-24.4 z"
         id="path3515"
         inkscape:connector-curvature="0"
         style="fill:#4e555f" />
      <path
         class="st50"
         d="m 595.6,741.2 c 0,0 1.7,9 -0.4,14.3 -2,5.2 -5.9,9.9 -5.9,9.9 0,0 -8.3,-12 -10.1,-12.1 -1.7,-0.1 1.5,-1.9 1.5,-1.9 l 14.9,-10.2 z"
         id="path3517"
         inkscape:connector-curvature="0"
         style="fill:#4e555f" />
      <path
         class="st50"
         d="m 596.5,670.1 c 0,0 41.3,-7.1 84.3,-0.4 43,6.7 82.6,33.3 97.9,41.7 10.4,5.7 -1.9,17.2 -1.9,17.2 l -12,17 c 0,0 -6,-10.6 -22.1,-10.8 -16,-0.3 -23.9,2 -23,13.1 0.9,11.1 14.9,11.7 20.2,14.9 5.2,3.2 6,11.3 -3,18.9 -9,7.6 -23.9,11.5 -25.9,18 -2,6.5 -1.7,16.4 6.4,19.4 8.1,2.9 17.1,-2.1 23.9,-4.8 6.8,-2.7 12.1,-7.4 12.1,-7.4 0,0 -8.1,13.8 -14.8,21.1 -6.7,7.3 -14.8,12.5 -6.7,19.3 8.1,6.8 18.7,1.8 18.7,1.8 0,0 3.1,15.4 20.2,9.3 9,-3.2 18.3,-11 31.8,-25.5 13.5,-14.5 15.5,-30 15.5,-30 L 833.6,784 c 0,0 13.5,30.8 15.5,54.8 2,24 3.6,78.7 -0.5,96.8 -4,18.2 -4.9,61.2 15.4,67.1 26.7,7.7 35,-25.4 37.6,-38.8 2.1,-10.6 4.5,-42.9 2.1,-79.1 -1.9,-30.5 -21.7,-56.7 -18.7,-113 2.2,-42.5 15.9,-55.9 32.7,-61.3 16.8,-5.4 17.4,15.2 14.7,23.6 -2.7,8.4 -12.9,53.4 -2,96.2 17.5,68.6 21,104.5 7.5,148.3 -13.5,43.8 -30.6,65.7 -64.9,73.1 -34.3,7.4 -61.8,-24.2 -67.2,-43.3 -5.3,-19.1 -6.7,-50.7 -6.7,-50.7 0,0 -1.5,4 -16.9,4.7 -15.4,0.7 -15.4,0.7 -15.4,0.7 0,0 -26.8,8.1 -32.3,51.9 -5.5,43.8 1.9,45 -2.8,52.7 -4.7,7.7 -30.8,25.2 -40.6,-8.7 -9.8,-33.9 11.5,-80.6 18.8,-93 2.2,-3.7 4.3,-7.4 4.3,-7.4 L 707.5,947 c 0,0 -30.3,39.1 -38.4,66 -8.1,26.9 -15,51.6 -27.8,48.2 -12.8,-3.4 -19.9,-11.2 -22.4,-28.7 -2.4,-17.5 15,-45.8 22.2,-57.3 7.3,-11.5 15.1,-24.2 15.1,-24.2 0,0 -10.3,-21.2 -13.2,-46.3 -3.6,-31.6 7.3,-40.2 7.3,-40.2 l -15.8,-18.9 c 0,0 11.7,-4.8 12.3,-12.2 0.6,-7.4 -2.8,-8.4 -2.8,-8.4 0,0 6.7,0.2 9.4,-15.4 2.7,-15.6 -10.8,-14.4 -17.5,-9.9 -6.7,4.5 -17.1,5.1 -17.1,5.1 0,0 13.4,-8.4 15.4,-20.2 2,-11.8 -6.9,-18.2 -15.4,-14.1 -8.5,4.1 -16.1,10.8 -16.1,10.8 0,0 8.3,-14.1 11.7,-41.1 3.4,-27 -7.3,-57.8 -17.9,-70.1 z"
         id="path3519"
         inkscape:connector-curvature="0"
         style="fill:#4e555f" />
      <path
         class="st50"
         d="m 432.9,594.2 c 2.5,15.7 14.8,33.4 39.8,12.2 26.4,-22.4 42.2,-35.1 49.5,-39.7 7.3,-4.5 20.8,-5.9 20.7,-0.3 -0.1,5.6 -5.4,9 -7.4,21.4 -2,12.4 -2.7,27.6 -0.7,49.5 2.2,23.8 6.3,39.1 23.9,37 17.7,-2 30.1,-19.7 30.1,-19.7 0,0 2.5,11.9 -1.3,28.6 -3.8,16.7 -20.3,32.7 -20.3,32.7 0,0 6.6,1.2 16.1,-1.1 9.5,-2.3 20.2,-9.7 20.2,-9.7 0,0 1.3,16.4 -5.5,26.3 -6.8,9.9 -22.2,23.1 -27.8,23.2 -5.6,0.1 -8.1,2.7 -14.7,14.6 -6.6,11.9 -14.2,23 -14.2,23 0,0 -10,-7.3 -15.6,-10.3 -5.6,-3 -3.8,-5.3 -22.5,-4.8 -18.7,0.5 -32.1,11.8 -32.1,11.8 0,0 -2.8,-4.2 -8,-4.7 -5.1,-0.5 -14.3,-0.7 -14.3,-0.7 0,0 4,-5.4 6.1,-10.1 2,-4.7 4.7,-13.5 4.7,-13.5 l -22.9,-2.7 2.7,29.3 c 0.3,1.2 -12.9,-2 -24.9,-6.4 -10.9,-4 -13.7,-20.8 -13.7,-20.8 0,0 -11.2,0.6 -28.1,2 -16.8,1.3 -35,6.7 -57.9,10.1 -22.9,3.4 -26.7,-12.7 -18.2,-27.6 8.5,-14.8 42.3,-43.7 42.3,-43.7 0,0 3.8,3.2 12.5,7.3 8.7,4.1 20.7,2.2 20.7,2.2 0,0 2.3,8 6.3,8.8 4,0.8 6.4,7.2 16.4,7.2 10,0 31.7,-1.8 27.2,-16.4 -3.4,-11 -18.3,-15.6 -18.3,-15.6 0,0 -2.1,-7.1 -2.1,-11.8 0,-4.7 3.9,-10.8 -9,-23.3 -15.1,-14.6 -38.8,-7.7 -38.8,-7.7 0,0 0.5,-5.8 6.5,-16.5 6,-10.7 18.3,-8.6 18.3,-8.6 0,0 2,-6.2 17.2,-35.5 21.1,-40.6 36.1,-37.6 36.1,-37.6 0,0 -1.6,26 1,41.6 z m 45.8,59.9 c -24,0 -43.5,15 -43.5,33.4 0,18.5 19.5,33.4 43.5,33.4 24,0 43.5,-15 43.5,-33.4 0,-18.5 -19.5,-33.4 -43.5,-33.4 z"
         id="path3521"
         inkscape:connector-curvature="0"
         style="fill:#4e555f" />
      <path
         class="st50"
         d="m 501.9,872.8 c 0,0 0.1,22.5 -19.3,23.9 -19.4,1.4 -31,-5.6 -35.6,-23.8 -4.6,-18.2 4,-55 6.7,-61.3 2.8,-6.2 11.5,-24.7 30.5,-29.6 19,-4.9 17.3,-7.1 35,-3.9 17.7,3.2 22.1,14.1 22.1,14.1 0,0 -10.2,3.3 -18.6,6.2 -8.4,2.9 -14.6,2.3 -22.1,30.5 -7.5,28.2 3.4,33.1 1.3,43.9"
         id="path3523"
         inkscape:connector-curvature="0"
         style="fill:#4e555f" />
      <path
         class="st50"
         d="m 438.2,787.5 c 0,0 -13.1,16.8 -13.4,43.3 -0.3,26.5 3.7,43 -6.3,49 -9.9,6 -25.3,12.7 -38.3,4.7 -13,-8 -12.3,-23 -10,-35.8 2.3,-12.8 6.1,-42.6 13.4,-52.9 7.3,-10.3 21.6,-21.2 21.6,-21.2 0,0 7.2,11.9 32.3,13.7"
         id="path3525"
         inkscape:connector-curvature="0"
         style="fill:#4e555f" />
    </g>
    <g
       id="Collar"
       transform="matrix(0.30808525,0,0,0.30808525,-8.1750596,644.26296)">
      <path
         class="st51"
         d="m 535.2,622.6 c 0,0 11.5,7.5 22.1,2.2 11,-5.5 17.7,-11.1 16.2,-18.7 -1.5,-7.6 -1.5,-13.7 -14,-20.1 -11.4,-5.9 -21.2,-1.1 -21.2,-1.1 0,0 -8.6,24.2 -3.1,37.7 z"
         id="path3528"
         inkscape:connector-curvature="0"
         style="fill:#ffffff" />
      <path
         class="st51"
         d="m 478.8,601.2 c 0,0 -11.6,-14.8 -4,-28.7 7.7,-13.9 29.2,-10.4 29.2,-10.4 l 0.3,18.2 -25.5,20.9 z"
         id="path3530"
         inkscape:connector-curvature="0"
         style="fill:#ffffff" />
      <path
         class="st51"
         d="m 573.1,593.7 c 0,0 7,-12.6 24.5,-10.7 17.4,1.9 17.8,21.2 16.8,25.4 -1,4.3 -4.1,15.6 -17.2,18.2 -13.1,2.6 -19,-2 -21.6,-4.4 -2.6,-2.4 -4.7,-4.9 -4.7,-4.9 0,0 5.6,-4.8 2.2,-23.6 z"
         id="path3532"
         inkscape:connector-curvature="0"
         style="fill:#ffffff" />
      <path
         class="st51"
         d="m 611.4,584.8 c 0,0 0.8,-6.4 13.5,-9.1 12.7,-2.7 18.6,3.8 21.7,8.6 3.1,4.8 7.3,12.9 1,23.9 -6.3,11.1 -21.1,10.2 -25,10.7 -3.9,0.5 -9.7,-2.4 -9.7,-2.4 0,0 2.4,-10.3 0.7,-17.2 -1.8,-6.9 -4.4,-10.7 -4.4,-10.7 l 2.2,-3.8 z"
         id="path3534"
         inkscape:connector-curvature="0"
         style="fill:#ffffff" />
      <path
         class="st51"
         d="m 637.2,575.1 c 0,0 1.6,-5.1 10.8,-9.8 9.2,-4.7 20.2,-9.7 29.2,3.7 9,13.4 -3,27.2 -7.1,28.8 -4.2,1.6 -7.6,4.2 -11.2,3.5 -3.6,-0.7 -7.5,-1.9 -7.5,-1.9 0,0 2.2,-14.6 -14.2,-24.3 z"
         id="path3536"
         inkscape:connector-curvature="0"
         style="fill:#ffffff" />
      <path
         class="st51"
         d="m 640.9,544.4 c 0,0 8.9,-2.3 17.9,0 9,2.3 9.4,15.5 9.4,15.5 0,0 -3.3,-2 -9.4,0.4 -6.1,2.4 -12.3,6.5 -13.2,6.3 -0.9,-0.2 -8.1,-9.8 -4.7,-22.2 z"
         id="path3538"
         inkscape:connector-curvature="0"
         style="fill:#ffffff" />
    </g>
    <g
       id="Lisa_ropa"
       transform="matrix(0.30808525,0,0,0.30808525,-8.1750596,644.26296)">
      <path
         class="st52"
         d="m 510.9,866.3 c 0,0 -0.7,40.4 -20.9,88.2 -20.2,47.8 -37.3,82.3 -37.3,82.3 0,0 29.9,-19.6 39.3,-26.4 9.4,-6.7 15.5,-18.4 19.5,-4.2 4,14.1 7.3,49.1 7.3,49.1 l 55.4,-44.8 21.6,48.2 c 0,0 3.7,13.2 10.7,4.4 7,-8.9 13.9,-18.2 13.9,-18.2 0,0 -3.8,-16.8 5.6,-41.1 9.4,-24.2 30.1,-47.8 30.1,-47.8 0,0 4.4,-8.8 -0.7,-15.5 -5.1,-6.7 -11.2,-29 -11.9,-53.2 -0.7,-24.2 6,-25.7 6,-25.7 l -13.3,-18.1 c 0,0 -19.6,12.1 -41.2,12.9 -23.1,0.8 -24.6,1.6 -24.6,1.6 0,0 -22.5,9 -59.5,8.3 z"
         id="path3541"
         inkscape:connector-curvature="0"
         style="fill:#dc3933" />
      <path
         class="st52"
         d="m 733.8,1016.3 c 0,0 19.6,17.6 29.3,27.4 9.7,9.8 13.8,16 13.8,16 0,0 10.5,-25.3 14.1,-36.5 3.6,-11.1 2.8,-17.4 2.8,-17.4 l 17.5,5.9 c 0,0 -8.8,-19.5 -8.8,-37.7 0,-18.2 0,-18.2 0,-18.2 0,0 -8.2,3.4 -16.9,4.7 -8.7,1.3 -15.4,0.7 -15.4,0.7 0,0 -18.5,11.9 -23.9,22.7 -5.4,10.9 -12.5,32.4 -12.5,32.4 z"
         id="path3543"
         inkscape:connector-curvature="0"
         style="fill:#dc3933" />
      <path
         class="st52"
         d="m 846.4,963.2 c 0,0 7.3,5.2 24.8,7.9 17.5,2.7 22.2,1 22.2,1 0,0 -14.1,-18.9 -22.2,-32.3 -8.1,-13.4 -19.1,-30.5 -19.1,-30.5 0,0 -5.7,39.7 -5.7,53.9 z"
         id="path3545"
         inkscape:connector-curvature="0"
         style="fill:#dc3933" />
      <path
         class="st52"
         d="m 634.7,666.8 c 0,0 26.1,-7.2 41.8,-9.4 15.7,-2.2 31.5,-1.5 31.5,-1.5 0,0 9.6,10.9 13.6,16.1 4,5.2 5.5,11.4 5.5,11.4 0,0 -31.2,-11.7 -46.2,-13.7 -15,-2 -46.2,-2.9 -46.2,-2.9 z"
         id="path3547"
         inkscape:connector-curvature="0"
         style="fill:#dc3933" />
      <path
         class="st53"
         d="m 535.2,1199.9 c 0,0 -5.3,4.9 -5.3,8.8 0,4 0,19.4 0,19.4 0,0 39.8,28.3 88.8,24.7 49.1,-3.5 63.6,-10.6 63.6,-10.6 0,0 0.9,-13.3 -3.1,-24.3 -4,-11 -10.6,-22.1 -10.6,-22.1 0,0 -25.8,-8 -44.4,-0.9 -18.6,7.1 -36.1,28 -36.1,28 l -17.2,-5.9 c 0,0 -2.3,-9.1 3,-16.2 5.3,-7.1 18.3,-18.5 32.2,-24.7 13.9,-6.2 22.7,-3.3 30.7,-3.3 8,0 18.6,4 18.6,4 0,0 -4.4,-3.5 -10.6,-9.3 -6.2,-5.7 -11.9,-8.8 -11.9,-8.8 0,0 -27,-5.3 -44.8,2.4 -28.9,12.4 -36.9,39.1 -37.6,44 -0.7,4.3 -8.7,3.2 -15.3,-5.2 z"
         id="path3549"
         inkscape:connector-curvature="0"
         style="fill:#ea5d34" />
      <path
         class="st54"
         d="m 738.7,1181.1 v 20.8 c 0,0 2.7,3.5 11.5,5.7 8.8,2.2 49.1,15 94.1,8.4 45,-6.6 60.1,-12.3 60.1,-12.3 0,0 0,-9.8 -6.4,-23 -5,-10.4 -17,-22.6 -17,-22.6 0,0 -20,4.9 -28.8,13.8 -8.8,8.8 -11.8,20.7 -11.8,20.7 H 808 c 0,0 -3.8,1.9 -3.4,-3.2 0.4,-5.1 8.2,-25 20.6,-35.6 12.4,-10.6 33.1,-16.4 33.1,-16.4 0,0 -13.3,-5.3 -17.7,-7.5 -4.4,-2.2 -9.7,-4 -9.7,-4 0,0 -22.3,8.9 -35.7,24 -15.6,17.7 -16.5,40.1 -16.5,40.1 0,0 -16.4,0.4 -25.2,-2.2 -8.7,-2.7 -14.8,-6.7 -14.8,-6.7 z"
         id="path3551"
         inkscape:connector-curvature="0"
         style="fill:#eb5939" />
      <path
         class="st52"
         d="m 707.1,949.6 c 0,0 -21.4,32.6 -33.5,54.9 -12.1,22.3 -12.8,30.6 -12.8,30.6 0,0 8.5,15.1 12.6,20.8 4.1,5.8 8,13.5 11.3,11.2 3.3,-2.4 6.7,-6.1 6.7,-6.1 0,0 -3.7,-23.4 -1,-46.8 2.8,-23.5 12.8,-35.8 16.6,-43.5 0,0 5.3,-11.7 5.4,-12.4 0.1,-0.6 1.1,-1.4 0.4,-4.7 -0.7,-3.3 -2.6,-6.1 -2.6,-6.1 l -3.1,2.1 z"
         id="path3553"
         inkscape:connector-curvature="0"
         style="fill:#dc3933" />
    </g>
    <g
       id="dientes"
       transform="matrix(0.30808525,0,0,0.30808525,-8.1750596,644.26296)">
      <path
         class="st55"
         d="m 319.2,774.2 c 0,0 -1.5,8.2 1.9,11.9 3.4,3.7 6,6.3 6,6.3 0,0 5.9,-6.6 7.3,-11.6 1.3,-5 -0.6,-10 -0.6,-10 l -14.6,3.4 z"
         id="path3556"
         inkscape:connector-curvature="0"
         style="fill:#d8d2d2" />
      <path
         class="st55"
         d="m 437.6,759.3 2.7,24.4 c 0,0 1.2,9.6 5.4,6.7 4.2,-2.9 14.7,-15 15.2,-19.7 0.5,-4.6 2.3,-9.9 2.3,-9.9 l -25.6,-1.5 z"
         id="path3558"
         inkscape:connector-curvature="0"
         style="fill:#d8d2d2" />
    </g>
    <g
       id="ojos_lisa"
       transform="matrix(0.30808525,0,0,0.30808525,-8.1750596,644.26296)">
      <path
         class="st56"
         d="m 620.7,302.1 c 8.7,-28.3 35.1,-48.8 66.2,-48.8 31.4,0 56.8,20.9 65.8,49.4 1,3.1 1.8,6.4 2.4,9.7 0.6,3.3 1,6.7 1.1,10.1 0.2,4.9 -0.5,9.9 -1.7,14.9 -1,4.2 -2.5,8.3 -4.2,12.3 -2.7,6.3 -6,12.2 -9.2,17 -6.4,9.6 -12.4,15.3 -12.8,12.7 -3.3,-22.6 -31.5,-22.1 -41.5,-20.3 -18.1,3.3 -39.5,11.4 -48.5,10.4 -1.6,-0.2 0.2,-5.5 0.4,-6.6"
         id="path3561"
         inkscape:connector-curvature="0"
         style="fill:#ffffff;stroke:#000000;stroke-width:2.02069998;stroke-miterlimit:10" />
      <circle
         class="st56"
         cx="567.29999"
         cy="352.20001"
         r="73.199997"
         id="circle3563"
         d="m 640.49998,352.20001 c 0,40.42724 -32.77275,73.2 -73.19999,73.2 -40.42724,0 -73.2,-32.77276 -73.2,-73.2 0,-40.42724 32.77276,-73.19999 73.2,-73.19999 40.42724,0 73.19999,32.77275 73.19999,73.19999 z"
         sodipodi:cx="567.29999"
         sodipodi:cy="352.20001"
         sodipodi:rx="73.199997"
         sodipodi:ry="73.199997"
         style="fill:#ffffff;stroke:#000000;stroke-width:2.02069998;stroke-miterlimit:10" />
    </g>
    <g
       id="Gato_collar"
       transform="matrix(0.30808525,0,0,0.30808525,-8.1750596,644.26296)">
      <path
         class="st57"
         d="m 586.5,770.8 c 0,0 2.8,-4.7 5.3,-14 2.5,-9.3 3.8,-21.4 3.8,-21.4 0,0 5,-4.8 6.8,-14.3 1.8,-9.5 2.2,-14.8 2.2,-14.8 l -10.2,5.3 c 0,0 0.9,-6 0,-10 -0.9,-4 -7.9,-11.1 -7.9,-11.1 0,0 2.7,-7.4 3.3,-16.5 0.6,-9.1 0.5,-9.2 0.5,-9.2 0,0 4.7,3.2 8.6,9.2 3.9,6 5.6,10.9 5.6,10.9 0,0 -5.9,-5.8 -6.9,4.2 -0.8,8.8 6.9,9.1 9.5,7.9 2.6,-1.2 1.8,-3.5 1.8,-3.5 0,0 6,14.2 6.1,27.8 0,13.5 -1.1,23.2 -1.1,23.2 0,0 -3.5,-3.7 -7.4,-1.4 -3.9,2.3 -4.6,6.9 -3.6,8.9 1,2 3.3,2 5.3,1.3 2,-0.7 4.5,-2 4.5,-2 0,0 -1.6,9.5 -4.7,17.5 -3.2,7.9 -7.2,14.4 -7.2,14.4 0,0 -6.4,2.3 -11.3,3.3 -4.9,1 -10.9,0 -10.9,0 0,0 6.9,-1.3 7.9,-15.7 z"
         id="path3566"
         inkscape:connector-curvature="0"
         style="fill:#558188" />
      <path
         class="st58"
         d="m 536.5,657.1 c 0,0 0.2,1.6 1.3,3.3 1.1,1.7 3,3.7 3,3.7 0,0 5.6,-3.8 15.6,0 9.9,3.8 14.5,8 14.5,8 0,0 5.5,-2.7 8.3,-5.9 2.8,-3.2 4.7,-5.3 4.7,-5.3 0,0 -7.9,-3.8 -14.8,-5.7 -7,-1.9 -9.6,-1.5 -9.6,-1.5 0,0 1.3,5.3 -5.8,5.4 -7.2,0.1 -5.4,-5.4 -5.4,-5.4 0,0 -8.9,-0.4 -11.8,3.4 z"
         id="path3568"
         inkscape:connector-curvature="0"
         style="fill:#4c5f66" />
      <ellipse
         class="st51"
         cx="553.40002"
         cy="655.40002"
         rx="5.9000001"
         ry="4"
         id="ellipse3570"
         d="m 559.30002,655.40002 c 0,2.20914 -2.64152,4 -5.9,4 -3.25848,0 -5.9,-1.79086 -5.9,-4 0,-2.20913 2.64152,-4 5.9,-4 3.25848,0 5.9,1.79087 5.9,4 z"
         sodipodi:cx="553.40002"
         sodipodi:cy="655.40002"
         sodipodi:rx="5.9000001"
         sodipodi:ry="4"
         style="fill:#ffffff" />
      <ellipse
         transform="matrix(0.9127,-0.4085,0.4085,0.9127,-229.5218,306.4522)"
         class="st51"
         cx="602.59998"
         cy="690.5"
         rx="5.3000002"
         ry="7.9000001"
         id="ellipse3572"
         d="m 607.89998,690.5 c 0,4.36305 -2.3729,7.9 -5.3,7.9 -2.92711,0 -5.3,-3.53695 -5.3,-7.9 0,-4.36305 2.37289,-7.9 5.3,-7.9 2.9271,0 5.3,3.53695 5.3,7.9 z"
         sodipodi:cx="602.59998"
         sodipodi:cy="690.5"
         sodipodi:rx="5.3000002"
         sodipodi:ry="7.9000001"
         style="fill:#ffffff" />
      <ellipse
         transform="matrix(0.3565,-0.9343,0.9343,0.3565,-307.2607,1049.5239)"
         class="st51"
         cx="608.29999"
         cy="747.79999"
         rx="7.0999999"
         ry="4.6999998"
         id="ellipse3574"
         d="m 615.39999,747.79999 c 0,2.59574 -3.17878,4.7 -7.1,4.7 -3.92122,0 -7.1,-2.10426 -7.1,-4.7 0,-2.59574 3.17878,-4.7 7.1,-4.7 3.92122,0 7.1,2.10426 7.1,4.7 z"
         sodipodi:cx="608.29999"
         sodipodi:cy="747.79999"
         sodipodi:rx="7.0999999"
         sodipodi:ry="4.6999998"
         style="fill:#ffffff" />
    </g>
    <g
       id="sombras"
       transform="matrix(0.30808525,0,0,0.30808525,-8.1750596,644.26296)">
      <path
         class="st59"
         d="m 636.5,1072.4 c 0,0 -9.4,6.6 -17.9,4.7 -8.5,-1.9 -12.8,-15.1 -12.8,-15.1 0,0 -2.4,10.9 -10.9,10.9 -8.5,0 -18.4,-16.5 -18.4,-16.5 0,0 2.4,29.3 0,52 -2.4,22.7 -4.7,41.1 -4.7,41.1 0,0 -0.5,1.4 13.2,0 13.7,-1.4 32.7,6.4 32.7,6.4 0,0 -36.5,3.3 -47.9,16 -11.3,12.8 -24,33.2 -24,33.2 l -9.4,-5.2 c 0,0 8.5,-59.5 11.3,-94.9 2.8,-35.4 5.7,-78.4 5.7,-78.4 l 14.9,-12.3 c 2,-1.7 6.5,-2 7.7,0.3 l 20.8,45.4 c 1.3,2.6 6.7,3.2 8.5,0.9 l 15,-16.1 c 0,0 -3.2,2.6 5.3,8.7 8.5,6.1 15.6,7.1 15.6,7.1 l -4.7,11.8 z"
         id="path3577"
         inkscape:connector-curvature="0"
         style="fill:#e0aa2c" />
      <path
         class="st59"
         d="m 735.2,1063 c 0,0 6.6,29.3 8,50.1 1.4,20.8 0.5,31.2 -1.9,39.7 -2.4,8.5 -2.3,29.5 -2.3,29.5 0,0 14.5,5.3 21.6,5.8 7.1,0.5 14.9,2.1 16.8,2.1 1.9,0 4.1,-24.5 11.6,-33 7.6,-8.5 17.2,-21.4 17.2,-21.4 0,0 -11.5,-1.8 -18.1,3.8 -6.6,5.7 -10.9,10.4 -10.9,10.4 0,0 -1.4,-44.4 -3.3,-64.2 -1.9,-19.8 -1.9,-29.3 -1.9,-29.3 0,0 -11.8,-17.5 -22.7,-26 -10.9,-8.5 -14.2,-9.9 -14.2,-9.9 0,0 -4.2,20.3 0.1,42.4 z"
         id="path3579"
         inkscape:connector-curvature="0"
         style="fill:#e0aa2c" />
      <path
         class="st59"
         d="m 789.6,1037 c 0,0 6.1,12.3 17,18.9 10.9,6.6 23.1,11.8 23.1,11.8 0,0 1.4,-9.4 0,-19.8 -1.4,-10.4 -3.3,-10.9 -3.3,-10.9 0,0 -7.6,-5.7 -11.8,-13.7 -4.2,-8 -4.6,-11.8 -4.6,-11.8 l -11.4,-6.6 -3.8,3.3 c 0,0 -3.3,19.8 -5.2,28.8 z"
         id="path3581"
         inkscape:connector-curvature="0"
         style="fill:#e0aa2c" />
      <path
         class="st59"
         d="m 858.5,704.8 c 0,0 -2.8,25.5 -16,48.7 -13.2,23.1 -33.1,36.4 -33.1,36.4 0,0 -8,25.9 -20.3,42.4 -12.3,16.5 -32.1,24.6 -32.1,24.6 0,0 19.4,4.2 39.7,-17.3 20.3,-21.5 18.4,-36.6 18.4,-36.6 0,0 26.4,-23.1 34.9,-44.4 8.5,-21.2 14.6,-35.8 8.5,-53.8 z"
         id="path3583"
         inkscape:connector-curvature="0"
         style="fill:#e0aa2c" />
      <path
         class="st59"
         d="m 736.7,840 c 0,0 9.9,-1.4 17.5,-5.2 7.6,-3.8 17,-10.9 17,-10.9 0,0 -8,9 -17.2,16.1 -9.3,7.1 -14,4.3 -17.3,0 z"
         id="path3585"
         inkscape:connector-curvature="0"
         style="fill:#e0aa2c" />
      <path
         class="st59"
         d="m 645.5,811.3 c 0,0 -24.1,22.7 -33.5,24.8 -9.4,2.1 -43,6.8 -58.1,6.8 -15.1,0 -28.3,3.4 -28.3,3.4 0,0 -9.9,-2.4 -8,-17.5 1.9,-15.1 9.4,-26 9.4,-26 0,0 -8.5,0.5 -12.8,2.4 -4.3,1.9 -11.5,10.5 -13.9,26.1 -2.4,15.6 3.5,37.6 3.5,37.6 0,0 9,-1.8 24.6,-0.8 15.6,1 40.2,-13.3 40.2,-13.3 0,0 27.9,4.8 46.3,0.2 18.4,-4.6 22.7,-13.9 26.5,-16.7 3.8,-2.8 4.3,-12.3 4.3,-12.3 0,0 -2.8,1.5 -14.2,7.4 -11.3,5.9 -16.5,5.9 -16.5,5.9 0,0 24.6,-12.8 30.7,-19.4 6.1,-6.6 6.1,-12.8 6.1,-12.8 l -6.3,4.2 z"
         id="path3587"
         inkscape:connector-curvature="0"
         style="fill:#e0aa2c" />
      <path
         class="st59"
         d="m 425.9,848.7 c 0,0 3.8,3.3 7.1,4.7 3.3,1.4 15.1,3.8 15.1,3.8 0,0 -2.8,-19.8 3.8,-38.3 6.6,-18.4 20.8,-31.2 20.8,-31.2 0,0 -1.4,-2.8 -7.1,-2.8 -5.7,0 -13.2,0 -13.2,0 0,0 -1.4,3.3 -2.5,4.6 -2.9,3.4 -6.4,4.5 -7.9,1.6 -1.4,-2.8 -2.4,-6.2 -2.4,-6.2 0,0 -15.6,20.3 -13.7,63.8 z"
         id="path3589"
         inkscape:connector-curvature="0"
         style="fill:#e0aa2c" />
      <path
         class="st59"
         d="m 368.8,762.7 c 0,0 -2.8,12.3 0,19.4 2.8,7.1 11.8,18.4 11.8,18.4 0,0 1.9,-7.1 9,-15.6 7.1,-8.5 14.6,-11.3 14.6,-11.3 0,0 -4.3,-1.9 -4.3,-5.2 0,-3.3 -0.9,-8 -0.9,-8 l -30.2,2.3 z"
         id="path3591"
         inkscape:connector-curvature="0"
         style="fill:#e0aa2c" />
      <path
         class="st59"
         d="m 505.1,577.5 -2.3,-68 c 0,0 2.2,-1.2 6.8,-5.1 4.7,-4 6.6,-4.5 6.6,-4.5 0,0 4.3,26.2 4.3,42.8 0,16.6 0,27.7 0,27.7 l -15.4,7.1 z"
         id="path3593"
         inkscape:connector-curvature="0"
         style="fill:#e0aa2c" />
      <path
         class="st59"
         d="m 505.1,499.9 c 0,0 -10.8,0.7 -13.7,-9 -2.9,-9.7 8.3,-14 8.3,-14 0,0 -1.3,-2.2 -8.7,-4.7 -7.4,-2.5 -9.9,5 -10.3,8.6 -0.4,3.6 1.8,11.5 1.8,11.5 0,0 -6.5,-2.2 -7.2,-8.6 -0.7,-6.5 3.2,-12 3.2,-12 0,0 -6.1,-0.9 -7.9,2.7 -1.8,3.6 -4,7.2 -4,7.2 0,0 -3.2,-3.7 2.2,-10 5.4,-6.2 7.2,-6.2 7.2,-6.2 0,0 -4,-6.5 -1.8,-10.8 2.2,-4.3 4.7,-7.2 8.3,-8.3 3.6,-1.1 3.6,-1.1 3.6,-1.1 0,0 -26.2,1.1 -29.5,23 -3.3,21.9 10.8,37.7 27.7,37.7 16.9,0 20.8,-6 20.8,-6 z"
         id="path3595"
         inkscape:connector-curvature="0"
         style="fill:#e0aa2c" />
      <path
         class="st60"
         d="m 503.3,513.3 0.5,29 c 0,1.6 -4.2,2.5 -5.7,3.2 -6,2.6 -21.2,9 -25.2,10.4 -5,1.8 -14.5,8.8 -18,-0.9 -2.9,-8.1 -7.8,-36.5 -10.2,-45.5 -0.5,-1.7 -4.9,-6 -6.7,-6.1 l -72.7,-0.9 c -2.4,-0.1 -7.9,-4.6 -7.6,-7 l 15.2,-78.2 c 0.2,-1.6 -0.5,-3.2 -1.8,-4 l -73.8,-47.2 c -2,-1.3 -3.9,-12 -2.5,-13.9 l 50,-63.4 c 0.9,-1.2 2,-3.2 1.3,-4.6 L 310.8,213 c -1.1,-2.2 0.1,-8.5 2.4,-9.4 L 389.7,175 c 1.4,-0.5 9.8,-6.1 10,-7.6 1.8,-11.5 5.6,-54.3 9.4,-64.2 3,-7.7 6.1,-13.6 7.8,-16.6 0.7,-1.3 2.1,-2.1 3.6,-2.1 h 0.2 c 2.6,0 4.5,2.4 4,4.9 l -9.4,46.5 c 0,0.2 -0.1,0.4 -0.1,0.6 l -2.4,60.5 c -0.1,1.5 -0.9,2.8 -2.2,3.5 -7.7,3.9 -33.7,17 -39.5,19.4 -6.8,2.9 -16.2,19.8 -6.1,35.6 10.1,15.8 19.8,34.8 23,46.7 3.2,11.9 -4.7,16.5 -11.9,26.2 -7.2,9.7 -20.8,23.7 -4.3,37 16.5,13.3 38.1,29.5 38.1,43.1 0,13.7 -2.5,26.9 -2.5,26.9 0,0 -3.6,10.1 10.8,14 9.3,2.6 14.4,3 16.8,3 1.1,0 2.1,-0.4 2.9,-1.2 2.9,-2.8 11.7,-10.8 23.4,-13.7 14.4,-3.6 21.2,-5 25.9,-3.2 0,0 0.1,0 0.1,0.1 4.2,1.7 2.5,8.2 -2.1,7.8 -8.3,-0.8 -14,-0.2 -21,7.5 -12.5,13.7 -10.7,40.4 0.4,50.4 11.1,10 22.3,11.9 27.3,10.5 5,-1.4 8.5,0 8.5,0 l 2.9,2.7 z"
         id="path3597"
         inkscape:connector-curvature="0"
         style="fill:#e0ab27" />
      <path
         class="st61"
         d="m 526.9,1038.1 c 0,0 14.9,-28 20.3,-61 5.4,-33 4.5,-89.5 4.5,-89.5 0,0 19,-1.8 27.1,-3.2 8.1,-1.4 33,-9 38.4,-6.3 5.4,2.7 15.4,11.8 13.6,16.7 -1.8,5 2.3,28.5 5.9,38 3.6,9.5 6.3,22.6 0,30.3 -6.3,7.7 -25.8,37.5 -26.7,50.6 -0.9,13.1 1.8,38.4 1.8,38.4 L 578.3,1006 c 0.1,0 -44.6,29.8 -51.4,32.1 z"
         id="path3599"
         inkscape:connector-curvature="0"
         style="fill:#eb5b34" />
      <path
         class="st61"
         d="m 751.6,979.2 c 0,0 15.1,14.4 17.2,13.1 2.2,-1.3 4.2,-6.5 4.2,-6.5 l 9.1,42.6 -10.1,18.3 -37.7,-33.7 c 0.1,-0.1 9,-32.5 17.3,-33.8 z"
         id="path3601"
         inkscape:connector-curvature="0"
         style="fill:#eb5b34" />
      <path
         class="st62"
         d="m 589.3,1222 c 0,0 0.7,4.4 10,11.8 9.3,7.4 16.7,12.1 16.7,12.1 0,0 -23,-0.5 -43.4,-4.9 -20.4,-4.4 -43,-17.2 -43,-17.2 0,0 -0.2,-9.8 0,-14.4 0.2,-4.6 3.9,-9.5 3.9,-9.5 0,0 0.7,1.4 5.1,3.3 4.4,1.9 9.3,3 9.3,3 0,0 3.5,-13.2 7,-18.8 3.5,-5.6 10.2,-11.8 10.2,-11.8 l 7.6,19 -5.5,13.7 c 0,0 -2.3,3 1.2,5.6 3.5,2.6 14.6,6 14.6,6 0,0 2.8,-0.2 4.2,-0.9 1.4,-0.7 1.4,-0.7 1.4,-0.7 l 0.7,3.7 z"
         id="path3603"
         inkscape:connector-curvature="0"
         style="fill:#e03631" />
      <path
         class="st62"
         d="m 738.9,1183.7 c 0,0 0.4,4.8 0,9.2 -0.4,4.4 1,9 1,9 0,0 24.7,10.3 52.2,10.9 27.5,0.6 47.4,0.8 61,-1.3 13.6,-2.1 22,-4.6 22,-4.6 0,0 -31.2,-3.8 -39.8,-6.3 -8.6,-2.5 -13,-8.6 -13,-8.6 0,0 -21.2,-1.7 -22.2,-2.1 -1,-0.4 0.6,-7.5 0.6,-7.5 0,0 -6.5,-1.7 -10.1,-3.6 -3.6,-1.9 -7.8,-7.5 -7.8,-7.5 0,0 -2.7,5.9 -3.8,8.8 -1,2.9 -1.9,8.4 -5.9,8.4 -4,0 -17.2,-2.1 -22.4,-3.4 -5.2,-1.3 -11.1,-3.4 -11.1,-3.4 l -0.7,2 z"
         id="path3605"
         inkscape:connector-curvature="0"
         style="fill:#e03631" />
      <path
         class="st51"
         d="m 636.6,1075.9 c 0,0 -13.1,32.3 -15.2,44 -2,11.6 0,30.8 0,30.8 l 4,14.7 c 0,0 13.1,10.1 15.7,16.7 2.5,6.6 13.6,14.1 14.1,25.3 0.5,11.1 6.3,28.3 6.3,28.3 l 12.9,-2.5 c 0,0 2,-14.1 -8.1,-36.4 -10.1,-22.2 -17.2,-26.8 -23.7,-31.8 -6.6,-5.1 -12.1,-9.1 -12.1,-9.1 0,0 3,-20.2 6.1,-40.9 3,-20.7 3,-38.9 3,-38.9 h -3 z"
         id="path3607"
         inkscape:connector-curvature="0"
         style="fill:#ffffff" />
      <path
         class="st51"
         d="m 828.5,1071.3 -2.5,52.5 c 0,0 16.2,9.1 29.3,17.7 13.1,8.6 29.3,24.1 32.8,34 3.5,9.9 7.1,19 7.1,19 l -7.1,9.1 13.6,-2.5 c 0,0 3,-3 0,-11.1 -3,-8.1 -14.1,-29.8 -29.8,-44 -15.7,-14.1 -40.4,-24.8 -40.4,-24.8 0,0 1.5,-25.1 -3,-49.9 z"
         id="path3609"
         inkscape:connector-curvature="0"
         style="fill:#ffffff" />
      <path
         class="st51"
         d="m 677.7,593.7 c 0,0 82.5,22.6 131.2,58 48.7,35.4 46.5,49.4 46.5,49.4 0,0 -25.4,-42 -96.2,-70.7 C 688.4,601.7 671,599.1 671,599.1 l 6.7,-5.4 z"
         id="path3611"
         inkscape:connector-curvature="0"
         style="fill:#ffffff" />
      <path
         class="st51"
         d="m 742.4,371.7 -4.7,5.5 c 0,0 3.5,23.8 21.8,32.2 18.3,8.4 28.8,27.4 9.9,39.9 -19.2,12.7 -27.5,18 -27.5,18 0,0 38.2,-16.1 46.2,-30.4 7.4,-13.2 6.5,-20.7 -4.7,-28.4 -11.3,-7.7 -22.3,-14.9 -26.8,-19.4 -4.6,-4.5 -14.2,-17.4 -14.2,-17.4 z"
         id="path3613"
         inkscape:connector-curvature="0"
         style="fill:#ffffff" />
      <path
         id="path3987_1_"
         connector-curvature="0"
         nodetypes="cssssssscscssccssscscscssssccsssc"
         class="st63"
         d="m 710.9,811.6 c -12.4,8.5 -5.6,4.2 -22.6,1.9 -17,-2.3 -25.4,-22.9 -48.5,-19.9 -5.5,0.7 -19.7,8.2 -20.3,12.3 -0.2,1.2 23.8,-12.3 32.3,-9.9 2.4,0.7 3.5,7.7 2.8,9.7 -1.2,3.7 -4.4,10.4 -4.2,11.2 1.1,5.8 -26.5,8.7 -23.6,14.4 1,1.9 16.7,-7.7 17.6,-6.1 0.6,1.1 4.7,2.5 3.5,7.2 -1,3.9 -12.8,13 -12.8,13 0,0 5.8,-2.9 15.8,18 10,20.9 0.4,-2.9 0.4,-2.9 0,0 -13.9,8.5 -4.6,43.3 9.3,34.8 13.9,47.1 13.9,47.1 0,0 -21.2,20.9 -31.7,47.9 -10.4,27 -15.1,51.4 5.8,61.8 20.9,10.4 28.6,-19.3 29,-24.7 0.4,-5.4 5,-30.9 14.3,-42.5 9.3,-11.6 34,-52.5 34,-52.5 l 2.3,17 c 0,0 -20.1,32.4 -23.9,56.4 -3.9,23.9 3.1,58.3 16.2,63 13.1,4.7 19.7,0.4 23.6,-5.4 3.9,-5.8 0.8,-22 0.8,-22 l 0,0 c 0,0 -23.2,13.9 -19.3,-18.5 3.9,-32.4 15.5,-48.7 22.4,-66.4 7,-17.8 9.3,-32.4 -3.9,-51.8 -13.1,-19.3 -20.1,-28.6 -13.1,-46.4 7,-17.8 -2.3,-25.5 13.9,-14.7"
         inkscape:connector-curvature="0"
         style="fill:#3b4247" />
      <path
         id="path3936"
         connector-curvature="0"
         class="st64"
         d="m 515.3,794.6 c 0,0 -33.1,-15.3 -38.2,18.7 -5.1,33.9 -8.5,58.6 -2.5,66.2 5.9,7.6 16.1,13.6 22.1,5.9 5.9,-7.6 3.4,-29.7 3.4,-29.7 l -5.1,-3.4 c 0,0 -0.8,-9.3 5.1,-29.7 5.9,-20.4 11,-23 15.2,-28 z"
         inkscape:connector-curvature="0"
         style="fill:#51545b" />
      <path
         id="path3930"
         connector-curvature="0"
         class="st65"
         d="m 506.1,805.5 c -4.1,-1.2 -13.3,12.1 -14.8,26.3 -1.5,14.2 -5,24.3 -0.3,32.5 4.7,8.3 10.1,7.4 10.1,7.4 0,0 0.6,-9.2 0.3,-13 -0.3,-3.8 -2.1,-7.4 -3.5,-8 -1.5,-0.6 2.8,-13.5 3.6,-22 0.7,-8.6 0.8,-13.3 3,-16.9 2.2,-3.6 3.3,-5.9 3.3,-5.9 l -1.7,-0.4 z"
         inkscape:connector-curvature="0"
         style="fill:#7c838b" />
      <path
         id="path3934"
         connector-curvature="0"
         class="st64"
         d="m 407.3,880.9 c 0,0 -13.4,-4.9 -8.5,-31.2 4.9,-26.3 7.4,-38.6 15.9,-46.3 8.5,-7.6 20.4,-10.8 20.4,-10.8 0,0 -10.6,15.5 -9.8,33.9 0.8,18.5 1.1,39 -3.2,46.5 -4.2,7.5 -5.2,8.8 -14.8,7.9 z"
         inkscape:connector-curvature="0"
         style="fill:#51545b" />
      <path
         id="path3932"
         connector-curvature="0"
         class="st65"
         d="m 424.9,813.7 c 0,0 -1.5,20.6 -1.1,36.7 0.4,16.1 -6.2,23.3 -6.2,23.3 0,0 -1.7,-8.3 -1.9,-24.8 -0.2,-16.5 2.7,-28 9.2,-35.2 l 0,0 z"
         inkscape:connector-curvature="0"
         style="fill:#7c838b" />
      <path
         id="path3938"
         connector-curvature="0"
         nodetypes="sccsscsssccc"
         class="st66"
         d="M 783.4,714 C 724,680.9 699.1,666.7 647.7,667.7 c -6,-0.8 -11.7,-1.1 -16.8,-1 -22.3,0.2 -35.4,3.1 -35.4,3.1 5.5,-0.7 6.4,-0.5 12.6,5.9 25.2,-4.8 57.6,1.8 79.5,8.2 50.1,14.4 66.2,21.2 90.8,45.8"
         inkscape:connector-curvature="0"
         style="fill:#828385" />
      <path
         id="path3943"
         connector-curvature="0"
         class="st67"
         d="m 922.1,710.6 c 0,0 7.3,11.3 -2,36.5 -9.3,25.2 -10,68.3 2.7,104.8 12.6,36.5 20.6,72.3 17.9,95.5 -2.7,23.2 -2.7,23.2 -2.7,23.2 0,0 13.9,-44.5 5.3,-76.3 -8.6,-31.8 -22.6,-78.3 -22.6,-104.8 0,-26.5 5.3,-38.5 11.3,-53.1 6,-14.5 -3.2,-21.1 -9.9,-25.8 l 0,0 z"
         inkscape:connector-curvature="0"
         style="fill:#84848a" />
      <path
         id="path3989"
         connector-curvature="0"
         class="st68"
         d="m 769.4,895.4 c 0,0 -10,9.7 -4.2,24.7 5.8,15.1 5.4,22 2.7,29.7 -2.7,7.7 -6.6,12.7 -4.6,11.2 1.9,-1.5 15.8,-9.7 15.8,-18.5 0,-8.8 -8.1,-18.5 -8.9,-26.3 -0.8,-7.7 -5.1,-10.8 -0.8,-20.8 l 0,0 z"
         inkscape:connector-curvature="0"
         style="fill:#6e6e74" />
      <path
         id="path3994"
         connector-curvature="0"
         class="st63"
         d="m 781.7,932.9 c 0,0 8.9,6.2 19.7,5 10.8,-1.2 32.1,-7.7 32.1,-7.7 l -18.5,20 c 0,0 3.9,77.3 40.6,80 36.7,2.7 57.9,-19.7 66.8,-27.8 8.9,-8.1 13.5,-10.8 13.5,-10.8 0,0 -19.7,51.4 -59.9,57.2 -40.2,5.8 -51.8,-12 -60.3,-29.7 -8.5,-17.8 -13.5,-33.6 -14.7,-40.2 -1.2,-6.6 0.4,-26.7 0.4,-26.7 0,0 -9.3,5.4 -17.4,5 -8.1,-0.4 -12.7,-1.2 -12.7,-1.2 0,0 11.6,-3.8 10.4,-23.1 l 0,0 z"
         inkscape:connector-curvature="0"
         style="fill:#3b4247" />
      <path
         id="path3996"
         connector-curvature="0"
         class="st69"
         d="m 849.3,991.6 c 0,0 -11.6,-8.1 -11.2,-35.1 0.4,-27 5.4,-34 3.9,-79.6 -1.5,-45.6 -8.1,-89.6 -8.1,-89.6 0,0 16.2,30.9 16.2,67.2 0,36.3 -3.9,77.6 -6.2,90 -2.3,12.3 -1.1,30.9 5.4,47.1 z"
         inkscape:connector-curvature="0"
         style="fill:#848489" />
      <path
         id="path3975_2_"
         connector-curvature="0"
         nodetypes="csssssscsscssc"
         class="st70"
         d="m 770.5,861.2 c -20.5,-2.9 -46.8,-14.6 -52.7,-2.9 -5.9,11.7 -8.8,32.2 1,46.8 9.8,14.6 21.5,35.1 12.7,59.5 -8.8,24.4 -18.5,45.8 -20.5,64.4 -2,18.5 -4.9,27.3 3.9,27.3 8.8,0 17.6,-6.8 17.6,-6.8 0,0 -2.9,34.1 -18.5,28.3 -15.6,-5.9 -22.4,-26 -22.4,-52.3 0,-26.3 23.7,-65 23.7,-65 1.3,-13.9 -21.8,-62.5 -25.7,-75.8 -7.8,-26.6 -0.6,-55.9 29.7,-63.7 l 16.8,31.7 13.4,-2.4 5.5,4.8 15.5,6.1 z"
         inkscape:connector-curvature="0"
         style="fill:#3e4348" />
      <path
         class="st71"
         d="m 419.4,580.7 c 0.1,10.8 0.9,22.1 6.4,31.6 9.4,18.8 35.9,20.2 52.1,9.7 15.6,-13.4 30.1,-29 48.5,-38.9 -5.1,28.6 -8.7,59.8 3.5,87.1 4.8,16.1 24.5,22.9 39.5,17.1 2.7,-1 5.7,-2.7 3.3,1.5 -9.4,21.3 0.1,16.7 -17.7,29.4 15.4,8.3 22.9,3.8 44.4,0.8 -2.2,6.7 -27.2,17.2 -33.7,20.7 -17.1,7 -15.9,29.4 -29.2,40 C 506.1,787 480.7,762 450.5,759.1 434,758 409.8,763 410,745.6 c -23.1,0.3 -36.3,4 -59.1,7.5 -11.2,0.2 -10.1,0.8 -21,-2.8 0.8,-8.3 7.3,-15.4 13.1,-21.3 6.5,-8.6 22.2,-7.8 31.4,-13 13.5,9.5 39.8,13.2 45.3,6.4 19.7,-16.8 -16.7,-28 -16.2,-43.9 -0.6,-10.7 -21.6,-38.6 -14.4,-42.2 13.1,-16 17.1,-37.9 29.7,-54.5 l 0.6,-1.1 z m 61.2,72.8 c -24,0 -43.5,15 -43.5,33.4 0,18.4 19.5,33.4 43.5,33.4 24,0 43.5,-15 43.5,-33.4 0,-18.4 -19.5,-33.4 -43.5,-33.4 z"
         id="path3626"
         inkscape:connector-curvature="0"
         style="fill:#4d545a" />
    </g>
    <g
       id="Lineas"
       transform="matrix(0.30808525,0,0,0.30808525,-8.1750596,644.26296)">
      <path
         class="st72"
         d="m 514,500 c 0,0 -7.7,11.8 -26.9,9.1 -19.2,-2.7 -25.6,-13.1 -29.6,-22.6 -4,-9.4 -4,-25.6 4.7,-34.7 8.7,-9.1 16.3,-9.4 22.3,-9.4 6,0 11.4,1.3 12.8,2 1.3,0.7 3,2.7 3,2.7"
         id="path3629"
         inkscape:connector-curvature="0"
         style="fill:none;stroke:#020203;stroke-width:4.04139996" />
      <path
         class="st72"
         d="m 468.5,475.9 c 0,0 4.4,-10 17.8,-9.3 13.5,0.7 14.1,4.6 14.1,4.6"
         id="path3631"
         inkscape:connector-curvature="0"
         style="fill:none;stroke:#020203;stroke-width:4.04139996" />
      <path
         class="st72"
         d="m 484.4,487.5 c 0,0 -6.1,-3.7 -4.8,-10.1 1.3,-6.4 4.9,-8.8 4.9,-8.8"
         id="path3633"
         inkscape:connector-curvature="0"
         style="fill:none;stroke:#020203;stroke-width:4.04139996" />
      <path
         class="st72"
         d="m 664.2,1195.1 c 0,0 -24.8,-6.7 -44,1.3 -19.3,8.1 -33.4,26.6 -33.4,26.6 l -15.8,-5.7 c 0,0 -4,-5.1 0,-11.8 4,-6.7 18.2,-26.9 37.7,-31.3 19.5,-4.4 42.9,0 42.9,0"
         id="path3635"
         inkscape:connector-curvature="0"
         style="fill:none;stroke:#020203;stroke-width:4.04139996" />
      <path
         class="st72"
         d="m 535.6,1201.2 12.8,5.4 c 0,0 10.1,-31.7 32.3,-42.1 22.2,-10.4 25.5,-8.6 37,-8.6 11.5,0 15.6,0.9 15.6,0.9"
         id="path3637"
         inkscape:connector-curvature="0"
         style="fill:none;stroke:#020203;stroke-width:4.04139996" />
      <path
         class="st73"
         d="m 554.4,1028.1 18.2,-16.8 c 0,0 2.7,-1.3 5.4,5.1 2.7,6.4 19.5,44.5 19.5,44.5 0,0 4,6.7 8.8,1.7 4.7,-5.1 15.5,-16.8 15.5,-16.8 0,0 5.4,12.8 11.1,14.1 5.7,1.3 8.8,1.3 8.8,1.3"
         id="path3639"
         inkscape:connector-curvature="0"
         style="fill:none;stroke:#020203;stroke-width:4.04139996;stroke-linecap:round;stroke-linejoin:bevel" />
      <path
         class="st72"
         d="m 648.7,864.4 c 0,0 -12.1,11.1 -4,40.8 8.1,29.6 10.4,37.7 12.8,42.1 2.4,4.4 -1.7,9.4 -6.1,15.5 -4.4,6.1 -22.9,31 -27.3,52.2 -4.4,21.2 -2.4,30.6 -2.4,30.6"
         id="path3641"
         inkscape:connector-curvature="0"
         style="fill:none;stroke:#020203;stroke-width:4.04139996" />
      <path
         class="st72"
         d="m 634.9,845.5 c 0,0 11.5,6.1 16.8,21.6 5.4,15.5 10.4,23.9 22.6,32 12.1,8.1 20.9,12.1 20.9,12.1"
         id="path3643"
         inkscape:connector-curvature="0"
         style="fill:none;stroke:#020203;stroke-width:4.04139996" />
      <path
         class="st72"
         d="m 714.7,818.9 c 0,0 -34.7,18.2 -28,52.9 6.7,34.7 19.5,66.7 22.9,73.1 3.4,6.4 5.1,10.1 0.7,19.5 -4.4,9.4 -18.5,31.7 -20.2,53.2 -1.7,21.6 1.3,42.1 1.3,42.1"
         id="path3645"
         inkscape:connector-curvature="0"
         style="fill:none;stroke:#020203;stroke-width:4.04139996" />
      <path
         class="st72"
         d="m 708.7,947.6 c 0,0 -12.1,15.2 -25.9,39.4 -13.8,24.2 -21.9,48.2 -21.9,48.2"
         id="path3647"
         inkscape:connector-curvature="0"
         style="fill:none;stroke:#020203;stroke-width:4.04139996" />
      <path
         class="st72"
         d="m 734.3,1059.7 c 0,0 -6.1,-30.3 2,-52.5 8.1,-22.2 13.1,-31.3 24.6,-39.1 11.5,-7.7 20.2,-14.1 20.9,-26.3 0.7,-12.1 -5.4,-19.9 -8.4,-24.6 -3,-4.7 -0.7,-18.5 1,-20.5"
         id="path3649"
         inkscape:connector-curvature="0"
         style="fill:none;stroke:#020203;stroke-width:4.04139996" />
      <path
         class="st72"
         d="m 774,961 c 0,0 13.8,-0.7 21.6,-4 7.8,-3.3 6.1,-2 6.1,-2 0,0 -2.7,27.6 3.4,47.2 6.1,19.5 23.7,38.7 23.7,38.7"
         id="path3651"
         inkscape:connector-curvature="0"
         style="fill:none;stroke:#020203;stroke-width:4.04139996" />
      <path
         class="st72"
         d="m 817.5,944.2 c 0,0 -3.7,3.7 -8.1,6.4 -4.4,2.7 -7.7,4.4 -7.7,4.4"
         id="path3653"
         inkscape:connector-curvature="0"
         style="fill:none;stroke:#020203;stroke-width:4.04139996" />
      <path
         class="st72"
         d="m 513.7,868.8 c 0,0 12.1,1.3 32.3,-4.4 20.2,-5.7 25.3,-6.7 25.3,-6.7 0,0 24.6,3 40.4,-1.7 15.8,-4.7 17.7,-9.4 28.1,-14.8 10.3,-5.4 8,-13.8 8,-14.8 0,-1 -5.1,-2.4 -5.1,-2.4 0,0 9.8,-4.4 12.1,-15.5 2.4,-11.1 -6.8,-15.2 -15,-12.5 -8.2,2.7 -10.6,6.4 -16.6,8.8 -6.1,2.4 -11.5,2.7 -11.5,2.7 0,0 11.5,-2.4 19.9,-16.5 8.4,-14.1 2.4,-18.5 -4.4,-20.9 -6.7,-2.4 -14.5,2.4 -20.5,7.7 -6.1,5.4 -11.1,8.8 -17.2,9.8 -6.1,1 -13.5,-0.7 -13.5,-0.7 0,0 12.1,-2.4 12.1,-14.1 0,-11.8 -4.7,-20.9 -15.8,-17.8 -11.1,3 -12.5,12.8 -16.8,19.2 -4.4,6.4 -14.1,18.2 -14.1,18.2 0,0 -11.5,-19.2 -38.1,-15.2 -26.6,4 -42.8,16.1 -49.5,34.5 -6.7,18.4 -6.7,46.7 -6.7,46.7"
         id="path3655"
         inkscape:connector-curvature="0"
         style="fill:none;stroke:#020203;stroke-width:4.04139996" />
      <path
         class="st72"
         d="m 502.2,867.8 c 0,0 -6.4,-18.9 -1.7,-38.7 4.7,-19.9 10.1,-28 19.9,-30 9.8,-2 19.2,-5.4 19.2,-5.4"
         id="path3657"
         inkscape:connector-curvature="0"
         style="fill:none;stroke:#020203;stroke-width:4.04139996" />
      <path
         class="st72"
         d="m 380.2,803.5 c 0,0 1.8,-6.8 8.5,-15.6 6.7,-8.8 16.5,-13.5 16.5,-13.5"
         id="path3659"
         inkscape:connector-curvature="0"
         style="fill:none;stroke:#020203;stroke-width:4.04139996" />
      <path
         class="st74"
         d="m 400.8,759.3 c 0,0 -0.7,16.8 14.5,22.2 15.2,5.4 22.8,5 22.8,5 0,0 -5.3,4.8 -10,22 -4.7,17.2 -3.7,40.1 -3.7,40.1"
         id="path3661"
         inkscape:connector-curvature="0"
         style="fill:none;stroke:#020203;stroke-width:4.04139996;stroke-linejoin:round" />
      <path
         class="st75"
         d="m 471.1,788.9 c 0,0 -4.6,-4.4 -8,-4.7 -3.4,-0.3 -10.1,0 -10.1,0"
         id="path3663"
         inkscape:connector-curvature="0"
         style="fill:none;stroke:#020203;stroke-width:4.04139996;stroke-linecap:round" />
      <path
         class="st72"
         d="m 437.6,759.3 2.7,25.9 c 0,0 2.4,8.5 6.7,3.7 4.4,-4.7 7.1,-8.5 10.8,-14.5 3.7,-6.1 5.4,-15.2 5.4,-15.2 0,0 -15.5,-2.9 -25.6,0.1 z"
         id="path3665"
         inkscape:connector-curvature="0"
         style="fill:none;stroke:#020203;stroke-width:4.04139996" />
      <path
         class="st72"
         d="m 615.2,835.5 c 0,0 5.6,-1.4 12,-4.4 6.4,-3 15.1,-7 15.1,-7"
         id="path3667"
         inkscape:connector-curvature="0"
         style="fill:none;stroke:#020203;stroke-width:4.04139996" />
      <path
         class="st72"
         d="m 369.9,762.7 c 0,0 16.8,-6.1 61,-4.7 44.2,1.4 94.3,12.8 94.3,12.8"
         id="path3669"
         inkscape:connector-curvature="0"
         style="fill:none;stroke:#020203;stroke-width:4.04139996" />
      <path
         class="st72"
         d="m 319.3,774.2 c 0,0 -1,8.2 2,12.3 3,4.1 5.7,5.8 5.7,5.8 0,0 4.7,-4.7 6.1,-11.8 1.4,-7.1 0,-11.4 0,-11.4"
         id="path3671"
         inkscape:connector-curvature="0"
         style="fill:none;stroke:#020203;stroke-width:4.04139996" />
      <path
         class="st72"
         d="m 412.8,883.9 c 0,0 -9.6,-6.1 -10.6,-15 -1,-8.9 -1.4,-10.2 -1.4,-10.2"
         id="path3673"
         inkscape:connector-curvature="0"
         style="fill:none;stroke:#020203;stroke-width:4.04139996" />
      <path
         class="st72"
         d="m 387.3,886.8 c 0,0 -3.2,-4.2 -5.6,-10.3 -2.4,-6.1 -1.5,-12.1 -1.5,-12.1"
         id="path3675"
         inkscape:connector-curvature="0"
         style="fill:none;stroke:#020203;stroke-width:4.04139996" />
      <path
         class="st72"
         d="m 463.2,891.7 c 0,0 -2,-3.7 -4.7,-10.4 -2.7,-6.7 0,-13.5 0,-13.5"
         id="path3677"
         inkscape:connector-curvature="0"
         style="fill:none;stroke:#020203;stroke-width:4.04139996" />
      <path
         class="st72"
         d="m 482,894.4 c 0,0 -3.7,-7.1 -4.7,-12.5 -1,-5.4 0,-13 0,-13"
         id="path3679"
         inkscape:connector-curvature="0"
         style="fill:none;stroke:#020203;stroke-width:4.04139996" />
      <path
         class="st72"
         d="m 641.2,543.4 c 0,0 7.4,-2.2 13.3,-0.3 12.6,4.1 13.8,16.8 13.8,16.8 0,0 11.8,6.4 11.5,19.2 -0.3,12.8 -4,14.5 -11.8,20.2 -7.7,5.7 -18.2,-1.3 -17.2,0 1,1.3 -1.3,11.8 -14.5,17.2 -13.1,5.4 -24.2,0 -24.2,0 0,0 -7.1,10.8 -17.5,10.4 -10.4,-0.3 -13.8,-2.4 -17.2,-3.7 -3.4,-1.3 -7.1,-6.7 -7.1,-6.7 0,0 -9.4,10.1 -18.5,10.4 -9.1,0.3 -16.5,-3.4 -16.5,-3.4 0,0 -1.2,-12.7 -0.2,-21.4 1,-8.8 3.2,-17.3 3.2,-17.3"
         id="path3681"
         inkscape:connector-curvature="0"
         style="fill:none;stroke:#020203;stroke-width:4.04139996" />
      <path
         class="st72"
         d="m 591.4,669.6 -4.6,21 c 0,0 3,3 6.4,9.1 3.4,6.1 3,10.1 3,10.1 l 8.5,-4.7 c 0,0 1.3,4 0,14.1 -1.3,10.1 -8.1,16.8 -8.1,16.8 0,0 -0.7,9.8 -1,18.3 -0.3,8.5 -8,10.1 -8,10.1 0,0 2.2,6.5 0.4,11.2 -2.4,6 -9.1,11.8 -9.1,11.8 0,0 11.1,0 14.5,-0.8 3.4,-0.8 9,-8.1 9,-8.1 0,0 2.4,-6.7 5,-7.7 2.6,-1 3.4,-13 3.4,-13 0,0 0.7,-1.8 2.4,-3.4 1.7,-1.6 1.3,-10.5 1.3,-10.5 0,0 1,-3.4 0,-23.9 -1,-20.5 -8.4,-38.7 -11.5,-42.8 -3.1,-4.1 -11.8,-9.1 -11.8,-9.1 0,0 1.3,-1.7 0,-5.7 -1.3,-4 -2.4,-8.1 -2.4,-8.1 0,0 -1,2.7 -2,5.1 -1,2.4 -4.4,3 -4.4,3 0,0 -7.7,-5.7 -12.5,-5.7 -4.7,0 -8.1,-1.7 -8.1,-1.7 0,0 -1.3,-4.4 -7.1,-4.4 -5.7,0 -7.2,4 -7.2,4 l -8.6,2 c 0,0 -2.4,-3.7 -4.2,-14.8 -1.8,-11.1 0,-16.6 0,-16.6"
         id="path3683"
         inkscape:connector-curvature="0"
         style="fill:none;stroke:#020203;stroke-width:4.04139996" />
      <path
         class="st72"
         d="m 541.6,663.3 c 0,0 6.4,-2 12.8,0 6.4,2 16.8,9.1 16.8,9.1 0,0 0,-1 5.1,-3.4 5.1,-2.4 8.4,-6.6 8.4,-6.6"
         id="path3685"
         inkscape:connector-curvature="0"
         style="fill:none;stroke:#020203;stroke-width:4.04139996" />
      <path
         class="st72"
         d="m 570.4,672.8 c 0,0 -8.2,5 -19.4,1.3 -11.1,-3.7 -11.5,-16.2 -11.5,-16.2"
         id="path3687"
         inkscape:connector-curvature="0"
         style="fill:none;stroke:#020203;stroke-width:4.04139996" />
      <path
         class="st72"
         d="m 586.3,691.8 c 0,0 -4.3,6.9 -7.6,12.6 -3.4,5.7 -8.8,11.1 -8.8,11.1 0,0 5.5,0.4 10.9,-0.6 5.4,-1 14.4,-4.3 14.4,-4.3"
         id="path3689"
         inkscape:connector-curvature="0"
         style="fill:none;stroke:#020203;stroke-width:4.04139996" />
      <path
         class="st72"
         d="m 577.7,751.6 c 0,0 1,0.3 7.1,-3.4 6.1,-3.7 11.8,-12.1 11.8,-12.1"
         id="path3691"
         inkscape:connector-curvature="0"
         style="fill:none;stroke:#020203;stroke-width:4.04139996" />
      <path
         class="st72"
         d="m 570.3,616.5 c 0,0 2.6,-4.5 3.1,-9.9 0.6,-5.4 -1.4,-11 -1.4,-11"
         id="path3693"
         inkscape:connector-curvature="0"
         style="fill:none;stroke:#020203;stroke-width:4.04139996" />
      <path
         class="st72"
         d="m 612,616.5 c 0,0 2.4,-4.3 2.4,-12.4 0,-7.4 -6.3,-14.3 -6.3,-14.3"
         id="path3695"
         inkscape:connector-curvature="0"
         style="fill:none;stroke:#020203;stroke-width:4.04139996" />
      <path
         class="st72"
         d="m 650.7,599.3 c 0,0 1.3,-6.4 -1.7,-11.8 -3,-5.4 -10.5,-10.1 -10.5,-10.1"
         id="path3697"
         inkscape:connector-curvature="0"
         style="fill:none;stroke:#020203;stroke-width:4.04139996" />
      <path
         class="st72"
         d="m 645.7,566.7 c 0,0 3.2,-3.5 11.7,-5.6 9.3,-2.3 13.2,0.4 13.2,0.4"
         id="path3699"
         inkscape:connector-curvature="0"
         style="fill:none;stroke:#020203;stroke-width:4.04139996" />
      <path
         class="st74"
         d="m 675.7,593.1 c 0,0 42.1,13.6 74.1,27 32,13.4 66.7,29.8 96.3,62.2 29.6,32.3 9.8,66 5.1,73.8 -4.7,7.7 -16.8,26.9 -16.8,26.9 0,0 9.8,15.8 15.5,45.8 5.7,30 2.4,80.5 2.4,80.5 l 32.7,53.5 c 0,0 7.7,9.1 6.1,10.1 -1.7,1 -2,0.3 -14.1,0 -12.1,-0.3 -29.6,-8.8 -29.6,-8.8 0,0 -1.3,39.1 21.9,39.1 23.2,0 28.6,-24.2 33.3,-41.4 4.7,-17.2 4.7,-45.5 2,-73.4 -2.7,-28 -18.9,-65.3 -19.2,-102.4 -0.3,-37 2,-53.2 19.5,-69.4 17.5,-16.2 26.9,-7.4 29.3,5.1 2.4,12.5 -7.1,16.8 -8.1,44.1 -1,27.3 2,61.3 11.8,94 9.8,32.7 13.5,58.3 7.7,95.3 -5.7,37 -19.5,58.9 -28.3,72.1 -8.9,13.3 -23.9,21.9 -49.5,24.2 -25.6,2.4 -41.8,-12.8 -41.8,-12.8 0,0 5.4,18.5 6.7,37 1.3,18.5 0.3,50.9 0.3,50.9 0,0 12.1,4 33,17.8 20.9,13.8 24.6,25.6 32.7,37.5 8.1,11.9 5.4,22.2 5.4,22.2 0,0 -3,1.3 -13.5,4.7 -10.4,3.4 -21.9,7.4 -63.7,8.8 -41.8,1.4 -66.3,-5.7 -78.1,-8.1 -11.8,-2.4 -10.1,-8.4 -10.1,-8.4 0,0 -0.7,-28.3 0,-36 0.7,-7.7 4.7,-13.5 4.7,-13.5 0,0 -0.3,-11.8 -1.3,-43.8 -1,-32 -7.4,-45.8 -7.4,-45.8 0,0 -3,7.7 -5.4,10.1 -2.4,2.4 -6.7,10.4 -19.5,6.7 -12.8,-3.7 -18.2,-17.5 -18.2,-17.5 0,0 -3,4 -6.7,6.1 -3.7,2 -6.4,-5.1 -9.8,-9.1 -3.4,-4 -14.1,-22.9 -14.1,-22.9 0,0 -1.7,14.8 -7.1,21.2 -5.4,6.4 -9.8,4.4 -9.8,4.4 0,0 -1.3,22.2 -3.7,42.1 -2.4,19.9 -7.1,54.2 -7.1,54.2 0,0 13.1,11.5 22.9,21.9 9.8,10.4 13.1,20.5 19.9,33.3 6.7,12.8 3.4,31 3.4,31 0,0 -32,12.5 -82.8,6.7 -50.9,-5.7 -67.4,-22.6 -67.4,-22.6 0,0 1.7,-6.4 0.3,-17.2 -1.3,-10.8 8.1,-13.1 8.1,-13.1 0,0 7.7,-58.3 9.8,-96.3 2,-38.1 7.1,-72.7 7.1,-72.7 0,0 -29,23.2 -32.7,26.6 -3.7,3.4 -5.1,-3.4 -5.1,-3.4 0,0 -5.7,-36.7 -5.7,-41.1 0,-4.4 -0.7,-9.1 -4.7,-8.8 -4,0.3 -12.8,11.5 -27.6,20.5 -14.8,9.1 -25.9,14.8 -25.9,14.8 0,0 34,-68.4 43.4,-98.3 9.4,-30 15.5,-70.4 15.5,-70.4 l -9.4,-0.3 c 0,0 0,1.7 -0.3,5.1 -0.3,3.4 -1,13.1 -7.1,18.9 -6.1,5.7 -21.6,8.4 -36.7,0 -15.2,-8.4 -11.1,-33.3 -11.1,-33.3 0,0 -6.7,-0.3 -12.1,-3 -5.4,-2.7 -10.4,-6.7 -10.4,-6.7 0,0 0,8.8 0,17.8 0,9.1 -8.4,19.5 -22.2,20.5 -13.8,1 -21.9,0.3 -29,-8.8 -7.1,-9.1 -4.4,-23.9 0,-45.5 4.4,-21.6 8.4,-26.3 8.4,-26.3 0,0 -1,-3.4 -6.7,-10.4 -5.7,-7 -5.1,-10.8 -6.4,-19.5 -1.3,-8.8 1.3,-13.8 1.3,-13.8 0,0 1.7,-0.7 -4.7,0.3 -6.4,1 -14.1,2.7 -28.3,5.4 -14.2,2.7 -18.5,4 -18.5,4 0,0 -16.2,4.4 -23.9,-7.4 -7.7,-11.8 5.7,-27.3 16.8,-39.7 11.1,-12.5 28.3,-22.9 28.3,-22.9 0,0 -5.6,-6.6 -7.7,-11.8 -10.4,-25.2 11.7,-38.9 24.9,-40.1 0,0 0,-9.4 7.1,-17.8 7.1,-8.4 17.8,-6.1 17.8,-6.1 0,0 3.7,-10.8 6.4,-17.5 2.7,-6.7 8.4,-17.5 21.2,-36.4 12.8,-18.9 24.1,-20.2 24.1,-20.2 0,0 0.4,9.4 0.1,23.2 -0.3,13.8 -0.7,30 11.8,38.4 12.5,8.4 21.9,0 47.2,-22.8 25.3,-22.8 37.7,-26 37.7,-26 0,0 4.4,-2 9.8,-2 5.4,0 5.1,5.7 2.7,9.8 -2.4,4.1 -4.4,11.8 -4.4,11.8 0,0 3.7,-2.4 13.1,-1.7 9.4,0.7 16.5,9.8 18.5,11.1 2,1.3 2,1.3 2,1.3 0,0 4.4,-9.4 17.5,-12.8 13.1,-3.4 18.9,7.4 18.9,7.4 0,0 4.9,-10.8 11.9,-13.5 7,-2.7 17.8,-0.3 17.8,-0.3 l 3.8,-5.7 c 3.9,-3.8 4.5,-4.8 4.5,-4.8 -0.8,-1.3 -3.8,-4.5 -4.9,-7.6 -2.4,-7.1 -2,-32.7 -2,-32.7 0,0 6.7,-1.3 21.6,-11.8 14.9,-10.5 8.1,-22.9 8.1,-22.9 0,0 31.7,-5.6 68,-19.6 36.4,-14.1 44.1,-24.2 50.5,-32.9 6.4,-8.7 9.4,-24.6 -4.7,-32.7 -14.1,-8.1 -18.5,-13.8 -27.6,-19.2 -9.1,-5.4 -13.1,-18.4 -13.1,-18.4"
         id="path3701"
         inkscape:connector-curvature="0"
         style="fill:none;stroke:#020203;stroke-width:4.04139996;stroke-linejoin:round" />
      <line
         class="st72"
         x1="847.09998"
         y1="964.09998"
         x2="851.70001"
         y2="903.59998"
         id="line3703"
         style="fill:none;stroke:#020203;stroke-width:4.04139996" />
      <path
         class="st72"
         d="m 735.6,1018.6 c 0,0 6.7,4.7 16.8,15.2 10.1,10.4 21.6,22.9 21.6,22.9 0,0 4.5,7.4 7.8,-5.4 3.3,-12.8 10.4,-30.6 11.7,-35.7 1.3,-5.1 0,-11.1 0,-11.1 l 12.5,6.6"
         id="path3705"
         inkscape:connector-curvature="0"
         style="fill:none;stroke:#020203;stroke-width:4.04139996" />
      <path
         class="st72"
         d="m 741,1183.3 c 0,0 7.4,2.7 14.8,3.7 7.4,1 21.9,5.7 21.6,3 -0.3,-2.7 3.7,-26.9 20.2,-44.1 16.5,-17.2 35.4,-19.5 35.4,-19.5"
         id="path3707"
         inkscape:connector-curvature="0"
         style="fill:none;stroke:#020203;stroke-width:4.04139996" />
      <path
         class="st72"
         d="m 854.6,1137.2 c 0,0 -20.7,5.7 -32.1,19.7 -11.4,14 -17.8,34 -17.8,34 0,0 9.4,2.2 17.2,2.2 7.8,0 15.8,0 15.8,0 0,0 5,-17.5 17,-24.2 12,-6.7 13.3,-8.6 20.1,-10.2 6.8,-1.6 8.3,0 8.3,0"
         id="path3709"
         inkscape:connector-curvature="0"
         style="fill:none;stroke:#020203;stroke-width:4.04139996" />
      <path
         class="st76"
         d="m 621.9,303.6 c 8.7,-28.3 35.1,-48.8 66.2,-48.8 31.4,0 56.8,20.9 65.8,49.4 1,3.1 1.8,6.4 2.4,9.7 0.6,3.3 1,6.7 1.1,10.1 0.2,4.9 -0.5,9.9 -1.7,14.9 -1,4.2 -2.5,8.3 -4.2,12.3 -2.7,6.3 -6,12.2 -9.2,17 -6.4,9.6 -12.4,15.3 -12.8,12.7 -3.3,-22.6 -31.5,-22.1 -41.5,-20.3 -18.1,3.3 -39.5,11.4 -48.5,10.4 -1.6,-0.2 0.2,-5.5 0.4,-6.6"
         id="path3711"
         inkscape:connector-curvature="0"
         style="fill:none;stroke:#000000;stroke-width:4.04139996;stroke-miterlimit:10" />
      <path
         class="st72"
         d="m 836.1,780 -15.9,18.7 c 0,0 -3.4,24.9 -27.3,43.1 -23.9,18.2 -26,17.5 -33.4,15.2 -7.4,-2.4 -8.8,-8.1 -8.8,-8.1 0,0 -9.4,6.7 -16.5,0 -7.1,-6.7 -4,-14.1 3.7,-21.2 7.7,-7.1 12.1,-10.9 14.5,-16.1 2.4,-5.2 0.7,-4.5 0.7,-4.5 0,0 -21.6,12.8 -27.6,11.8 -6.1,-1 -9.8,-0.1 -13.1,-7.3 -3.4,-7.2 0.7,-13.2 8.1,-19 7.4,-5.7 17.5,-9.8 20.5,-15.5 3,-5.7 6.7,-14.1 -2.7,-17.2 -9.4,-3 -19.9,-6.1 -17.5,-16.2 2.4,-10.1 12.1,-13.5 23.9,-9.8 11.8,3.7 17.2,10.1 20.2,11.5 3,1.3 3.5,0 6.6,-5.4 3.1,-5.4 8.6,-12.5 10.3,-17.5 1.6,-5.1 3,-4.2 2.6,-6.6 -0.3,-2.5 -20.5,-13.2 -35.7,-22.3 -15.2,-9.1 -31.7,-17.2 -63,-23.6 -31.3,-6.4 -89.2,0 -89.2,0"
         id="path3713"
         inkscape:connector-curvature="0"
         style="fill:none;stroke:#020203;stroke-width:4.04139996" />
      <path
         class="st72"
         d="m 626.5,666.8 c 0,0 29,-5.9 46.8,-8.9 17.8,-3 34.7,-2 34.7,-2"
         id="path3715"
         inkscape:connector-curvature="0"
         style="fill:none;stroke:#020203;stroke-width:4.04139996" />
      <path
         class="st72"
         d="m 690.5,635.4 c 0,0 15.5,18.5 22.2,25.9 6.7,7.4 12.3,20.2 12.3,20.2"
         id="path3717"
         inkscape:connector-curvature="0"
         style="fill:none;stroke:#020203;stroke-width:4.04139996" />
      <path
         class="st72"
         d="m 560.7,490.9 c 0,0 27.3,9.3 59.4,4.9 32.1,-4.3 48.8,-4.9 48.8,-4.9"
         id="path3719"
         inkscape:connector-curvature="0"
         style="fill:none;stroke:#020203;stroke-width:4.04139996" />
      <path
         class="st72"
         d="m 554.7,500.2 c 0,0 0.5,-5.3 5.5,-10.9 4,-4.5 9,-5.4 9,-5.4 l 0,0"
         id="path3721"
         inkscape:connector-curvature="0"
         style="fill:none;stroke:#020203;stroke-width:4.04139996" />
      <path
         class="st72"
         d="m 628.4,395.8 c 8.1,-12.1 10.7,-22.8 10.7,-22.8 0,0 20.2,-2.2 41,-9.9 20.8,-7.7 43.8,-5.5 49.4,17.9 5.6,23.4 -18.8,31 -25.5,34.1 -6.7,3.1 -23.4,5.6 -23.4,5.6"
         id="path3723"
         inkscape:connector-curvature="0"
         style="fill:none;stroke:#020203;stroke-width:4.04139996" />
      <path
         class="st72"
         d="m 623.1,304 c 0,0 16.2,20.9 17.2,39.7 1,18.8 -1.7,31.1 -1.7,31.1"
         id="path3725"
         inkscape:connector-curvature="0"
         style="fill:none;stroke:#020203;stroke-width:4.04139996" />
      <circle
         class="st77"
         cx="560.40002"
         cy="355.89999"
         r="10.8"
         id="circle3727"
         d="m 571.20002,355.89999 c 0,5.96468 -4.83532,10.8 -10.8,10.8 -5.96467,0 -10.8,-4.83532 -10.8,-10.8 0,-5.96467 4.83533,-10.8 10.8,-10.8 5.96468,0 10.8,4.83533 10.8,10.8 z"
         sodipodi:cx="560.40002"
         sodipodi:cy="355.89999"
         sodipodi:rx="10.8"
         sodipodi:ry="10.8"
         style="fill:#020304" />
      <circle
         class="st77"
         cx="700.5"
         cy="321.79999"
         r="10.8"
         id="circle3729"
         d="m 711.3,321.79999 c 0,5.96467 -4.83532,10.8 -10.8,10.8 -5.96468,0 -10.8,-4.83533 -10.8,-10.8 0,-5.96468 4.83532,-10.8 10.8,-10.8 5.96468,0 10.8,4.83532 10.8,10.8 z"
         sodipodi:cx="700.5"
         sodipodi:cy="321.79999"
         sodipodi:rx="10.8"
         sodipodi:ry="10.8"
         style="fill:#020304" />
      <path
         class="st78"
         d="m 472.6,366.7 c 0,0 5.3,0.2 10.9,1.4 5.6,1.2 14,0 14,0"
         id="path3731"
         inkscape:connector-curvature="0"
         style="fill:none;stroke:#020304;stroke-width:4.04139996;stroke-miterlimit:10" />
      <path
         class="st78"
         d="m 483,304 c 0,0 3.4,1.3 12.5,7 9.1,5.7 10.6,3.4 10.6,3.4"
         id="path3733"
         inkscape:connector-curvature="0"
         style="fill:none;stroke:#020304;stroke-width:4.04139996;stroke-miterlimit:10" />
      <path
         class="st78"
         d="m 534.8,262.2 c 0,0 5.5,6.1 8.9,12.1 3.4,6.1 3.9,10.6 3.9,10.6"
         id="path3735"
         inkscape:connector-curvature="0"
         style="fill:none;stroke:#020304;stroke-width:4.04139996;stroke-miterlimit:10" />
      <path
         class="st78"
         d="m 593.6,284.9 c 0,0 6.6,-3.4 8,-11.3 1.3,-8 0,-18.3 0,-18.3"
         id="path3737"
         inkscape:connector-curvature="0"
         style="fill:none;stroke:#020304;stroke-width:4.04139996;stroke-miterlimit:10" />
      <path
         class="st78"
         d="m 654.4,265.4 c 0,0 0.4,-6 -1.5,-12.1 -2.3,-7.6 -8.6,-12.1 -8.6,-12.1"
         id="path3739"
         inkscape:connector-curvature="0"
         style="fill:none;stroke:#020304;stroke-width:4.04139996;stroke-miterlimit:10" />
      <path
         class="st78"
         d="m 704.6,257.5 c 0,0 -1.3,-4.7 0,-14.1 1.3,-9.4 -0.6,-12.8 -0.6,-12.8"
         id="path3741"
         inkscape:connector-curvature="0"
         style="fill:none;stroke:#020304;stroke-width:4.04139996;stroke-miterlimit:10" />
      <path
         class="st78"
         d="m 740.7,281.3 c 0,0 6.4,-1.3 10.4,-11.2 4,-9.9 3.4,-12.6 3.4,-12.6"
         id="path3743"
         inkscape:connector-curvature="0"
         style="fill:none;stroke:#020304;stroke-width:4.04139996;stroke-miterlimit:10" />
      <path
         class="st78"
         d="m 754.6,309.4 c 0,0 5.9,-1.4 14,-5.5 8.1,-4 10.1,-10.8 10.1,-10.8"
         id="path3745"
         inkscape:connector-curvature="0"
         style="fill:none;stroke:#020304;stroke-width:4.04139996;stroke-miterlimit:10" />
      <path
         class="st72"
         d="m 329.2,676.2 c 2,21.3 8.6,24.1 20.2,30.6 7.7,4.3 16.7,4.4 21.8,4.1 0.9,-0.1 3.4,-1 4,-3.5 2.8,-10.9 11.6,-12.9 20,-14.4 l 8.6,0.7 -0.5,-8.7"
         id="path3747"
         inkscape:connector-curvature="0"
         style="fill:none;stroke:#020203;stroke-width:4.04139996" />
      <path
         class="st72"
         d="m 356.7,650.5 c 0,0 25.7,-3.5 36,7.9 9.7,10.8 10.9,21.9 10.5,28.6"
         id="path3749"
         inkscape:connector-curvature="0"
         style="fill:none;stroke:#020203;stroke-width:4.04139996" />
      <path
         class="st72"
         d="m 373.7,710.9 c 0,0 7.6,16 27.1,14.8 19.5,-1.2 22.1,-7.3 22.6,-12.4 0.5,-5.1 -3.5,-12.1 -9.6,-15.9 -6.1,-3.8 -10,-3.8 -10,-3.8"
         id="path3751"
         inkscape:connector-curvature="0"
         style="fill:none;stroke:#020203;stroke-width:4.04139996" />
      <ellipse
         class="st79"
         cx="479.20001"
         cy="687.5"
         rx="43.5"
         ry="33.400002"
         id="ellipse3753"
         d="m 522.70001,687.5 c 0,18.44631 -19.47561,33.4 -43.5,33.4 -24.02438,0 -43.5,-14.95369 -43.5,-33.4 0,-18.44631 19.47562,-33.4 43.5,-33.4 24.02439,0 43.5,14.95369 43.5,33.4 z"
         sodipodi:cx="479.20001"
         sodipodi:cy="687.5"
         sodipodi:rx="43.5"
         sodipodi:ry="33.400002"
         style="fill:none;stroke:#020203;stroke-width:3.99469995" />
      <circle
         class="st76"
         cx="568.5"
         cy="353.70001"
         r="73.199997"
         id="circle3755"
         d="m 641.7,353.70001 c 0,40.42724 -32.77276,73.2 -73.2,73.2 -40.42724,0 -73.2,-32.77276 -73.2,-73.2 0,-40.42724 32.77276,-73.19999 73.2,-73.19999 40.42724,0 73.2,32.77275 73.2,73.19999 z"
         sodipodi:cx="568.5"
         sodipodi:cy="353.70001"
         sodipodi:rx="73.199997"
         sodipodi:ry="73.199997"
         style="fill:none;stroke:#000000;stroke-width:4.04139996;stroke-miterlimit:10" />
      <path
         class="st72"
         d="m 502.2,562 c 0,0 -16.2,-4 -25.9,8.4 -9.8,12.5 0.3,30.3 2.1,31.7 1.8,1.4 26,-21.9 26,-21.9 l -1.1,-69.8 1.3,34.4 c 0,0 -29,11.5 -39.1,15.8 -10.1,4.4 -12.8,-14.1 -12.8,-14.1 0,0 -7.1,-29 -9.4,-36.7 -2.4,-7.7 -8.1,-6.6 -8.1,-6.6 h -48.1 c 0,0 -11.8,-0.7 -21.9,-1.1 -10.1,-0.5 -7.1,-10.8 -7.1,-10.8 0,0 12.1,-60.9 13.8,-70.2 1.6,-9.3 -2.1,-10 -2.1,-10 0,0 -52.5,-33 -67.6,-41.9 -15.1,-8.9 -7.3,-20 -7.3,-20 l 51.2,-64.9 c 0,0 -23.5,-44.9 -32.8,-65.4 -6,-13.1 0,-15.2 0,-15.2 l 85.3,-32 c 0,0 2.3,-18.9 4.4,-39.4 1.5,-14 7.8,-30.5 11.6,-39.5 1.8,-4.2 6.2,-6.7 10.8,-6.1 5.7,0.8 14,2.3 23.2,5.2 16.9,5.3 61.4,20.1 61.4,20.1 0,0 40.4,-48.5 51.2,-62 10.8,-13.5 18.4,-7 18.4,-7 0,0 7.2,7 18.6,17.8 11.4,10.8 43.8,47.2 43.8,47.2 0,0 55.2,-17.5 70.1,-22.2 14.8,-4.7 17.6,16.8 17.6,16.8 l 8,71.4 61.6,33.4 c 1.7,0.9 2.4,3 1.6,4.8 -3.5,7.3 -12.6,25.9 -20,38.6 -9.4,16.2 -31.6,41.9 -29.8,45.5 5,10.4 11,30.6 1,54 -12.3,29 -22.4,30.7 -22.4,30.7"
         id="path3757"
         inkscape:connector-curvature="0"
         style="fill:none;stroke:#020203;stroke-width:4.04139996" />
      <path
         class="st72"
         d="M 504.3,580.2"
         id="path3759"
         inkscape:connector-curvature="0"
         style="fill:none;stroke:#020203;stroke-width:4.04139996" />
      <circle
         cx="560.40002"
         cy="355.89999"
         r="10.3"
         id="circle3761"
         d="m 570.70002,355.89999 c 0,5.68854 -4.61146,10.3 -10.3,10.3 -5.68853,0 -10.3,-4.61146 -10.3,-10.3 0,-5.68853 4.61147,-10.3 10.3,-10.3 5.68854,0 10.3,4.61147 10.3,10.3 z"
         sodipodi:cx="560.40002"
         sodipodi:cy="355.89999"
         sodipodi:rx="10.3"
         sodipodi:ry="10.3" />
      <circle
         cx="699.59998"
         cy="321.79999"
         r="10.3"
         id="circle3763"
         d="m 709.89998,321.79999 c 0,5.68853 -4.61147,10.3 -10.3,10.3 -5.68854,0 -10.3,-4.61147 -10.3,-10.3 0,-5.68854 4.61146,-10.3 10.3,-10.3 5.68853,0 10.3,4.61146 10.3,10.3 z"
         sodipodi:cx="699.59998"
         sodipodi:cy="321.79999"
         sodipodi:rx="10.3"
         sodipodi:ry="10.3" />
      <line
         class="st76"
         x1="752.5"
         y1="847.59998"
         x2="782.09998"
         y2="826.79999"
         id="line3765"
         style="fill:none;stroke:#000000;stroke-width:4.04139996;stroke-miterlimit:10" />
    </g>
  </g>
</svg>
